<?xml version="1.0" encoding="UTF-8"?>
<!DOCTYPE svg PUBLIC "-//W3C//DTD SVG 1.1//EN" "http://www.w3.org/Graphics/SVG/1.1/DTD/svg11.dtd">
<!-- Creator: CorelDRAW 2021.5 -->
<svg xmlns="http://www.w3.org/2000/svg" xml:space="preserve" width="35.7206in" height="10.0288in" version="1.1" style="shape-rendering:geometricPrecision; text-rendering:geometricPrecision; image-rendering:optimizeQuality; fill-rule:evenodd; clip-rule:evenodd"
viewBox="0 0 39252.1 11020.33"
 xmlns:xlink="http://www.w3.org/1999/xlink"
 xmlns:xodm="http://www.corel.com/coreldraw/odm/2003">
 <defs>
  <style type="text/css">
   <![CDATA[
    .fil0 {fill:#FEFEFE}
    .fil1 {fill:#E5C586}
    .fil5 {fill:#312367}
    .fil6 {fill:#322468}
    .fil4 {fill:#4B3E7C}
    .fil2 {fill:#DCA627}
    .fil3 {fill:#F3BB1B}
   ]]>
  </style>
 </defs>
 <g id="Layer_x0020_1">
  <metadata id="CorelCorpID_0Corel-Layer"/>
  <g id="_1385712020800">
   <g>
    <g>
     <path class="fil0" d="M2277.9 5712.86l-127.46 -69.51c-10.66,-5.81 -21.67,-11.01 -32.43,-16.8l-104.27 -64.42c-1.29,-0.89 -5.47,-3.56 -6.8,-4.94 -1.76,-1.22 -3.91,-2.41 -5.8,-3.58l-473.75 -348.17c-1.31,-1.27 -2.47,-2.46 -3.63,-3.61l-46.68 -44.43c-1.23,-0.99 -2.59,-1.97 -3.98,-3.11l-83.49 -85.19c-4.79,-4.74 -8.97,-9.72 -13.61,-14.7l-130.73 -164.43c-47.59,-70.26 -98.03,-138.26 -138.59,-212.93 -6.04,-11.12 -10.53,-22.02 -15.95,-33.32l-47.93 -92.56c-2.85,-6.71 -5.12,-13.38 -8.2,-19.99l-111.52 -288.87c-19.89,-54.43 -44.29,-124.08 -51.01,-181.37 -0.98,-8.35 -1.11,-16.61 -2.92,-24.74l-9.12 -25.91c-0.55,-1.91 -1.12,-3.75 -1.6,-5.7l-26.26 -149.28c-7.52,-29.64 -10.11,-62.43 -12.66,-92.98 -1.77,-21.03 -3.16,-54.3 -9.73,-73.93 -6.01,-17.97 -7.41,-43.44 -8.64,-62.44 -1.36,-20.84 -1.87,-43.8 -5.49,-64.4l-16.37 -271.74c0.35,-86.61 2.52,-173.68 6,-260.14 1.98,-49.13 4.4,-98.49 8.6,-147.48 2.19,-25.62 5.23,-67.9 13.77,-91.9 0.91,-2.57 2.47,-5.2 4.24,-5.04 0.98,-4.76 1.94,-13.44 2.3,-15.98 0.88,-6.32 0.54,-13.7 0.64,-20.14 0.89,-58.34 15.75,-110.64 22.15,-167.67 9,-80.13 30.95,-158.5 52.25,-236.04 3.63,-13.22 5.47,-26.6 9.6,-39.62l17.05 -60.23c0.61,-1.79 1.39,-3.44 2.04,-5.14 0.63,-1.68 1.47,-3.27 2.09,-4.87l24.05 -74.27c45.25,-115.91 89.64,-228.55 144.35,-340.48l4.6 -9.43c2.28,-4.78 4.33,-9.65 6.64,-14.48l33.91 -64.45c10.44,-19.84 22.07,-38.72 33.42,-58.11l196.64 -288.02c45.39,-63.63 101.41,-118.93 153.75,-176.82l252.96 -231.77c1.3,-1.1 2.58,-2.15 3.87,-3.26l62.64 -49.75c2.54,-2.08 5.04,-4.27 7.56,-6.4 64.54,-54.55 139.43,-111.66 213.62,-152.08l134.82 -82.88c10.77,-5.73 21.67,-10.88 32.21,-16.94 1.47,-0.84 2.9,-1.75 4.43,-2.65l276.7 -137.78c11.31,-5.04 22.29,-10.75 33.62,-15.66l135.63 -53.98c12.91,-5.49 23.76,-8.41 37.01,-12.36l124.84 -43.6c5.35,-2 9.48,-3.98 15.4,-5.82l48.92 -14.22c1.64,-0.59 3.27,-1.4 4.99,-1.99 93.37,-32.09 190.24,-46.91 285,-73.37l98.08 -21.36c34.4,-7.49 72.68,-2.82 106.49,-12.69 16.74,-4.89 32.47,-8.33 49.89,-9.21 12.78,-0.64 22.51,-0.93 35.18,-4.13 54.48,-13.76 113.05,-9.59 168.04,-21.77l172.57 -17.28c89.63,0.2 177.56,-13.83 267.17,-13.83l1901.44 0c375.02,0 750.04,0 1125.06,0 369.84,0 739.64,-7.02 1109.48,-7.02 0.79,0 1.48,0.39 1.88,1.06 0.41,0.68 0.43,1.46 0.06,2.16 -13.78,26.05 -27.08,52.35 -41.14,78.28l-63.91 111.73c-0.9,1.47 -1.81,2.9 -2.66,4.33l-273.49 491.79c-0.76,1.53 -1.58,3.08 -2.4,4.63 -0.81,1.54 -1.67,3.05 -2.5,4.57 -0.83,1.51 -1.74,2.98 -2.59,4.46l-60.27 108.22c-0.8,1.51 -1.65,3.02 -2.48,4.57l-56.2 98.27c-0.8,1.5 -1.66,3 -2.49,4.53l-405.66 724.88c-14.03,26.04 -25.74,52.92 -41.33,78.12l-40 72.27c-0.83,1.51 -1.67,3.01 -2.49,4.53l-103.34 184.54c-6.27,12.05 -14.08,23.53 -20.96,35.31l-15.54 26.6c-0.86,1.48 -1.78,2.92 -2.63,4.37l-173.53 310.96c-1.68,3.01 -3.33,6.04 -5.04,9.03l-33.19 57.94c-2.79,6.55 -4.97,13.41 -8.03,20.08l-213.64 376.33c-0.82,1.49 -1.66,2.99 -2.47,4.49l-44.14 82.35c-7.89,12.8 -12.54,23.57 -19.13,36.92l-174.33 310.39c-0.97,1.48 -1.96,2.86 -2.87,4.17l-258.71 464.43c-7.75,13.31 -15.76,26.44 -23.5,39.73 -3.44,5.9 -7.03,11.72 -10.45,17.61l-203.71 365.07c-0.86,1.48 -1.74,2.93 -2.57,4.42 -0.83,1.49 -1.67,2.98 -2.49,4.51l-268.47 482.87c-1.61,3.05 -3.16,6.18 -4.81,9.24l-24.66 45.63c-7.06,11.58 -15.47,22.35 -21.89,34.21 -10.76,19.89 -3.77,17.54 -19.99,33.04l505.35 277.28c4.47,2.97 8.71,5.29 13.1,8.07l241.73 165.71c1.36,1.07 2.66,2.1 3.96,3.1l12.07 8.99c1.34,1.03 2.64,2.07 3.93,3.06l49.24 35c1.37,1.03 2.67,2.09 4,3.13l208.77 163.51c17.6,15.84 34.42,30.57 53.13,45.22l103.64 100.21c2.32,2.36 4.67,4.69 7.09,7.06l146.77 169.44c3.14,4.08 6.37,7.64 9.54,11.62l65.34 89.21c7.18,9.8 14.18,18.49 20.47,29.01l158.48 284.03c0.78,1.63 1.64,3.14 2.42,4.76l88.89 213.15c4.98,12.39 8.58,24.48 12.17,37.27l37.79 123.7c0.55,1.8 1.03,3.62 1.57,5.37l3.63 10.38c0.45,1.31 1.14,3.53 1.82,5.2 0.46,0.3 0.87,0.8 1.14,1.54 1.03,2.8 1.88,5.84 2.79,8.79l16.18 75.06c0.55,1.57 1.4,3.18 1.99,4.89 0.59,1.73 1.38,3.4 1.96,5.27l40.48 205.52c3.53,28.24 7.46,56.09 14.43,83.65 14.4,56.9 16.05,121.69 23.69,180.35l8.85 187.86c6.02,127.74 13.29,257.84 -1.23,385.25 -6.16,54.02 -8.41,110.12 -12.14,164.47 -2.14,31.13 -4.4,62.28 -7.35,93.35 -2.25,23.65 -4.72,48.38 -9.34,71.69 -2.77,13.97 -8.71,22.76 -11.02,38.08l-73.24 355.34c-32.55,92.9 -52.14,189.89 -92.75,279.83l-55.43 127.23c-59.79,115.02 -111.32,234.12 -187.32,339.86l-94.01 130.8c-1.09,1.32 -2.19,2.55 -3.21,3.86l-180.29 220.15c-3.78,3.81 -7.35,6.77 -11.04,10.27 -8.57,8.15 -16.06,16.05 -23.81,25.17l-143.77 137.27c-3.62,3.46 -7.18,6.88 -10.86,10.27 -8.54,7.84 -16.98,15.71 -25.3,23.77 -1.19,1.16 -2.34,2.37 -3.6,3.57l-104.43 85.25c-9.74,8.22 -17.44,14.29 -28.2,21.3 -6.11,3.98 -10.96,6.39 -16.86,11l-132.41 99.46c-5.77,3.69 -11.46,7.36 -17.14,11.04 -1.42,0.92 -2.83,1.85 -4.25,2.78 -1.41,0.92 -2.82,1.84 -4.27,2.79l-281.09 168.52 -292.86 142.63c-3.18,1.55 -6.5,2.91 -9.73,4.38 -1.61,0.74 -3.21,1.49 -4.88,2.23l-75.64 29.69c-96.38,43.53 -198.91,68.14 -298.87,101.61 -52.17,17.47 -107.31,32.2 -160.48,46.39 -31.21,8.32 -62.52,16.39 -93.96,23.8 -22.47,5.3 -46.14,10.91 -69.01,14.12 -14.06,1.98 -27.93,3.08 -41.75,7.19l-108.37 18.15c-9.98,1.96 -16.55,4.3 -25.84,7.74 -10.03,3.72 -21.2,4.52 -31.79,5.14 -45.62,2.67 -87.42,18.85 -133.71,20.81 -16.06,0.68 -31.3,1.99 -46.84,6.19 -13.13,3.55 -23.5,6.3 -37.25,7.86 -59.98,6.8 -124.37,0.91 -182.85,13.52 -31.05,6.69 -68.24,5.85 -100.07,5.89 -26.73,0.03 -65.22,-0.87 -90.63,6.83 -36.99,11.2 -51.79,9.08 -89.96,9.08l-1699.88 -0.03c-18.78,7.47 -225.2,8.47 -249.22,8.71 -177.17,1.8 -354.45,1.65 -531.63,1.37 -190.44,-0.3 -380.88,-1.08 -571.31,-1.87 -122.58,-0.51 -245.3,-1.53 -367.86,-1.03 -46.96,0.19 -93.05,-7.21 -140.27,-7.19l-281 0.13c-14.93,0.14 -52.58,1.81 -65.9,-7.08 -12.53,-8.36 -46.33,-7.08 -60.39,-7.08 -0.61,0 -1.14,-0.22 -1.57,-0.66 -0.43,-0.44 -0.64,-0.97 -0.63,-1.58 0.72,-32.39 31.27,-73.66 46.87,-101.9l56.18 -98.31c0.82,-1.49 1.67,-2.99 2.53,-4.5 0.85,-1.5 1.73,-2.99 2.59,-4.48 0.86,-1.48 1.77,-2.92 2.62,-4.37l67.6 -121.96c0.83,-1.5 1.67,-3 2.49,-4.54l77.26 -133.39c0.8,-1.5 1.57,-3.05 2.38,-4.58l48.55 -91.93c0.85,-1.53 1.77,-2.98 2.63,-4.46l241.28 -428.84c-28.18,2.39 -57.92,2.25 -86.17,2.14 -41.54,-0.16 -83.11,-1.16 -124.63,-2.26 -80.34,-2.15 -161.36,-5.72 -241.68,-5.54 -23.91,0.06 -48.34,0.02 -72.13,-2.56 -20.92,-2.27 -41.31,-6.78 -61.77,-11.55 -1.03,-0.24 -1.72,-1.14 -1.7,-2.19 0.97,-43.39 39.95,-86.68 60.96,-122.96 1.71,-2.95 3.43,-5.92 5.08,-8.9 0.83,-1.5 1.67,-3 2.48,-4.52 22.82,-42.41 47.27,-83.88 70.72,-125.92l54.54 -100.02c0.94,-1.49 1.91,-2.89 2.79,-4.27l206.41 -362.32c0.86,-1.47 1.79,-2.88 2.61,-4.35l203.64 -365.14c1.64,-3.02 3.18,-6.13 4.78,-9.2 2.42,-4.64 4.66,-9.35 7.17,-14.01l18.54 -30.74c0.93,-1.44 1.88,-2.83 2.74,-4.21l138.5 -247.65c5.9,-10.55 12.61,-20.09 19.09,-30.21l10.57 -17.4c2.6,-4.9 4.47,-8.84 6.67,-14.13l44.24 -89.38c0.89,-1.54 1.77,-2.99 2.6,-4.48l283.84 -495.74c0.97,-1.45 1.81,-2.9 2.67,-4.27l502.2 -895.21c1.86,-2.89 3.87,-5.63 5.7,-8.37l273.25 -484.98c2.43,-4.6 4.6,-9.35 7.13,-13.98l46.62 -79.81c2.55,-4.51 4.91,-9.06 7.58,-13.52l17.98 -31.04c3.05,-6.35 5.59,-12.85 8.92,-19.18 1.6,-3.04 3.38,-6.07 5.1,-9.05 0.85,-1.48 1.8,-2.91 2.66,-4.38l71.58 -124.99c3.33,-6.09 6.21,-12.39 9.53,-18.55l132.88 -232.34c6.33,-10.4 11.01,-21.33 16.92,-31.94l11.09 -18.15c0.48,-0.75 1.41,-2.14 2.22,-3.46 -0.29,-0.65 -0.27,-1.47 0.29,-2.33 1.91,-2.29 3.79,-4.62 5.63,-6.93zm932.81 -1660.97l108.03 -190.6c0.9,-1.47 1.88,-2.85 2.75,-4.29 0.87,-1.45 1.78,-2.88 2.58,-4.28l13.65 -28.41c0.79,-1.58 1.61,-3.12 2.46,-4.73l34.66 -56.77c0.93,-1.44 1.93,-2.8 2.79,-4.15l115 -207.92c0.83,-1.5 1.69,-2.99 2.51,-4.49l61.95 -113.65c6.07,-10.34 13.09,-19.75 19.35,-29.92 0.89,-1.44 1.8,-2.87 2.65,-4.3l240.69 -426.36c0.84,-1.5 1.67,-3.02 2.52,-4.49l29.84 -54.44c6.53,-11.18 12.23,-18.99 18.15,-30.93l94.7 -165.15c1.6,-3.04 3.15,-6.16 4.8,-9.25l378.14 -675.17c11.1,-20.48 22.15,-40.9 32.41,-61.82 -82.96,4.71 -166.38,-0.38 -249.43,0.6 -38.81,0.46 -74.38,11.15 -112.38,13.88 -37.44,2.69 -74.73,5.52 -112.03,7.16l-361.63 87.33c-1.51,0.63 -3.19,1.26 -4.81,1.93l-28.79 13.28c-11.58,5.34 -14.24,5.79 -25.65,9.55l-193.62 100.93c-1.32,0.87 -2.75,1.78 -4.1,2.65l-71.16 54.98c-1.16,1.07 -2.36,2.22 -3.6,3.33 -5.02,4.5 -10.18,8.57 -15.37,12.85 -15.26,12.59 -30.76,25.27 -45.51,38.46 -5.45,4.87 -11.41,10.24 -15.93,16.02 -3.15,4.03 -5.84,8.48 -8.93,12.6 -7.26,9.69 -15.75,18.91 -24.03,27.72 -45.4,48.27 -96.13,124.64 -122.5,185.42 -3.61,8.32 -6.69,16.31 -10.92,24.45l-5.07 8.99c-0.77,1.48 -1.7,2.92 -2.39,4.27l-87.09 298.86c-7.29,26.69 -8.78,66.43 -10.29,94.39 -0.87,16.02 -1.53,32.05 -2.22,48.08 -0.32,7.58 -0.26,18.43 -1.55,25.77 -1.55,8.82 -2.44,15.33 -8.32,22.09 -3.87,4.46 -4.63,22.1 -5,27.42l2.6 159.2c0.39,1.64 1.11,5.01 1.81,7.3 0.7,0.13 1.39,0.63 1.93,1.55 1.55,2.63 3.05,8.19 3.93,11.12 6.45,21.43 6,47.99 6.89,70.34 1.25,31.65 4.4,61.05 13.81,91.5 5.12,16.57 7.72,33.48 13.17,49.97 7.04,21.29 11.79,43.31 17.47,64.98 6.71,25.62 14.64,49.96 25.72,74.08 0.74,1.6 1.42,3.23 2.16,4.81l11.6 23.5c3.1,6.47 5.9,13.19 8.42,19.81l28.79 62.25c33.61,56.55 67.09,120.38 109.07,171.15l100.72 116.67c4.91,4.01 9.46,6.59 14.58,9.87zm1449.69 2540.61l-24.11 38.44c-7.18,12.36 -13.32,23.36 -19.49,36.33 -11.94,25.13 -24.82,49.64 -39.11,73.53 -7.18,12.01 -13.93,23.1 -20.5,35.57l-52.32 88.06c-3.05,6.39 -4.99,13.37 -7.97,20.05l-123.82 220.35c-12.87,24.35 -27.1,47.94 -40.01,72.33l-42.46 77.02c-0.91,1.48 -1.88,2.87 -2.74,4.28l-118.84 211.18c-1.75,2.94 -3.62,5.79 -5.32,8.7l-311.95 558.75c-3.4,6.08 -6.11,12.41 -9.64,18.5 -7.69,13.27 -16.97,25.5 -23.71,39.36l-371.39 667.94c-0.84,1.51 -1.7,3.01 -2.54,4.48l-72.04 131.59c-8.16,13.84 -13.6,19.77 -17.88,34.85 9.82,0.65 19.05,2.17 28.83,3.66 12.93,1.97 25.22,2.85 38.37,2.87l147.52 7.02c36.65,1.08 73.33,3.61 110.02,4.95 32.66,1.19 71.16,2.64 103.43,-2.19 46.16,-6.91 94.43,-9.09 141.07,-10.95 48.07,-1.92 96.32,-2.85 144.33,-5.82 8.85,-0.55 22.22,-0.85 29.69,-6.41 8.59,-6.4 23.03,-7.07 33.27,-7.84 40.8,-3.06 83.07,-11.19 122.99,-20.07 40.01,-8.9 80.23,-19.35 119.34,-31.65l487.97 -269.76c46.17,-42.18 89.48,-89.34 124.38,-141.35l16.94 -25.24c1,-1.39 2.02,-2.72 2.95,-4l52.75 -87.56c8.96,-15.19 17.65,-28.67 25.17,-44.75 4.66,-9.96 8.64,-19.12 12.53,-29.43l29.32 -69c25.62,-64.84 42.41,-131.57 60.8,-198.53l7.19 -48.81c5.62,-45.04 15.89,-84.28 16.84,-130.34l7.38 -358.19c-0.71,-24.05 -6.22,-45.92 -7.11,-70.06 -1.82,-49.49 -17.16,-109.76 -31.91,-157.03 -2.92,-9.37 -4.22,-18.9 -6.86,-28.24l-26.85 -78.24c-0.69,-1.46 -1.6,-2.95 -2.34,-4.52 -0.75,-1.59 -1.59,-3.13 -2.26,-4.6l-184.6 -292.52c-0.98,-1.19 -2,-2.54 -2.95,-3.76l-76.92 -77.31c-12.06,-11.32 -24.42,-22.25 -36.8,-33.09l-157.59 -108.87c-1.81,-0.8 -9.75,-3.66 -11.74,-6.88 -2.25,-0.96 -6.42,-2.05 -9.27,-2.83z"/>
     <path class="fil1" d="M2279.3 5712.57l-128.42 -70.04c-10.66,-5.81 -21.67,-11.01 -32.41,-16.79l-104.22 -64.39c-1.22,-0.84 -5.79,-3.75 -6.71,-4.9 -1.67,-1.23 -4.05,-2.48 -5.88,-3.61l-473.68 -348.1c-1.25,-1.22 -2.41,-2.41 -3.57,-3.57l-46.71 -44.47c-1.26,-1.02 -2.62,-1.99 -3.97,-3.09l-83.46 -85.16c-4.78,-4.74 -8.96,-9.71 -13.56,-14.65l-130.69 -164.38c-47.55,-70.2 -97.98,-138.18 -138.52,-212.82 -6.03,-11.11 -10.51,-22 -15.93,-33.29l-47.93 -92.55c-2.83,-6.68 -5.11,-13.36 -8.19,-19.96l-111.5 -288.83c-19.86,-54.34 -44.25,-123.94 -50.95,-181.16 -0.98,-8.39 -1.12,-16.66 -2.95,-24.88l-9.12 -25.94c-0.55,-1.87 -1.1,-3.7 -1.57,-5.61l-26.27 -149.28c-7.51,-29.62 -10.09,-62.37 -12.65,-92.86 -1.77,-21.13 -3.17,-54.42 -9.78,-74.14 -5.98,-17.88 -7.36,-43.31 -8.6,-62.21 -1.36,-20.88 -1.87,-43.86 -5.49,-64.45l-16.37 -271.66c0.35,-86.57 2.52,-173.63 6,-260.08 1.98,-49.12 4.4,-98.46 8.6,-147.44 2.18,-25.51 5.22,-67.77 13.72,-91.67 0.96,-2.7 2.15,-5.42 3.98,-3.95 0.99,-4.4 2.33,-15.29 2.6,-17.24 0.89,-6.37 0.55,-13.76 0.65,-20.25 0.88,-58.29 15.75,-110.6 22.15,-167.59 8.99,-80.08 30.94,-158.41 52.22,-235.9 3.63,-13.2 5.46,-26.59 9.59,-39.61l17.05 -60.22c0.61,-1.75 1.38,-3.4 2.02,-5.09 0.63,-1.67 1.47,-3.26 2.1,-4.89l24.05 -74.26c45.24,-115.86 89.62,-228.48 144.31,-340.39l4.61 -9.43c2.28,-4.78 4.33,-9.66 6.63,-14.47l33.91 -64.43c10.44,-19.84 22.06,-38.69 33.38,-58.05l196.62 -287.98c45.36,-63.59 101.36,-118.87 153.65,-176.7l252.91 -231.72c1.28,-1.09 2.57,-2.15 3.84,-3.24l62.64 -49.74c2.55,-2.09 5.05,-4.28 7.58,-6.42 64.49,-54.51 139.33,-111.59 213.48,-151.99l134.81 -82.88c10.76,-5.72 21.66,-10.87 32.21,-16.94 1.47,-0.84 2.91,-1.75 4.41,-2.64l276.65 -137.75c11.29,-5.03 22.26,-10.74 33.58,-15.64l135.62 -53.98c12.88,-5.48 23.7,-8.39 36.94,-12.34l124.87 -43.6c5.34,-2 9.45,-3.98 15.35,-5.8l48.94 -14.22c1.66,-0.6 3.29,-1.41 5,-1.99 93.35,-32.08 190.21,-46.89 284.92,-73.35l98.06 -21.36c34.43,-7.5 72.67,-2.81 106.56,-12.71 16.67,-4.87 32.33,-8.3 49.68,-9.18 12.84,-0.65 22.63,-0.94 35.36,-4.16 54.45,-13.75 113.03,-9.58 167.96,-21.76l172.48 -17.27c89.58,0.2 177.51,-13.83 267.12,-13.83l1901.44 0c375.02,0 750.04,0 1125.06,0 369.84,0 739.64,-7.02 1109.48,-7.02 0.46,0 0.86,0.22 1.09,0.62 0.24,0.39 0.25,0.85 0.03,1.25 -13.78,26.05 -27.08,52.34 -41.13,78.27l-63.89 111.7c-0.9,1.47 -1.81,2.9 -2.67,4.34l-273.5 491.82c-0.77,1.54 -1.58,3.08 -2.4,4.63 -0.81,1.53 -1.66,3.04 -2.5,4.56 -0.83,1.5 -1.73,2.97 -2.58,4.45l-60.28 108.23c-0.81,1.51 -1.65,3.03 -2.48,4.56l-56.21 98.27c-0.8,1.51 -1.66,3.01 -2.49,4.53l-405.66 724.88c-14.02,26.03 -25.73,52.9 -41.32,78.1l-40.01 72.3c-0.83,1.51 -1.67,3.02 -2.5,4.53l-103.34 184.54c-6.27,12.05 -14.07,23.52 -20.94,35.28l-15.54 26.6c-0.86,1.47 -1.78,2.91 -2.63,4.37l-173.53 310.97c-1.68,3.01 -3.33,6.04 -5.04,9.03l-33.21 57.98c-2.81,6.59 -4.99,13.45 -8.03,20.07l-213.63 376.3c-0.82,1.5 -1.67,2.99 -2.47,4.51l-44.12 82.33c-7.89,12.8 -12.56,23.6 -19.15,36.95l-174.3 310.34c-0.95,1.45 -1.94,2.83 -2.87,4.17l-258.73 464.47c-7.75,13.3 -15.76,26.43 -23.5,39.72 -3.44,5.91 -7.03,11.72 -10.46,17.63l-203.71 365.07c-0.86,1.48 -1.74,2.94 -2.57,4.42 -0.83,1.5 -1.68,2.99 -2.49,4.52l-268.48 482.87c-1.61,3.06 -3.16,6.19 -4.81,9.24l-24.65 45.61c-7.06,11.58 -15.48,22.35 -21.91,34.22 -10.99,20.31 -3.43,17.34 -20.73,33.67l506.43 277.88c4.44,2.95 8.69,5.28 13.07,8.06l241.69 165.68c1.35,1.06 2.65,2.09 3.95,3.1l12.07 8.99c1.33,1.03 2.64,2.06 3.94,3.07l49.24 35.01c1.35,1.01 2.65,2.08 3.97,3.11l208.74 163.49c17.59,15.84 34.43,30.58 53.12,45.21l103.6 100.17c2.32,2.35 4.67,4.69 7.07,7.03l146.73 169.39c3.12,4.06 6.36,7.62 9.52,11.6l65.33 89.2c7.16,9.77 14.15,18.45 20.42,28.93l158.47 284c0.77,1.6 1.63,3.11 2.4,4.71l88.88 213.12c4.97,12.36 8.56,24.42 12.14,37.18l37.79 123.7c0.55,1.8 1.03,3.62 1.58,5.39l3.63 10.39c0.41,1.16 1.22,3.77 1.93,5.5 0.39,0.15 0.77,0.53 1,1.17 1.04,2.79 1.9,5.88 2.8,8.79l16.18 75.07c0.57,1.63 1.41,3.23 1.99,4.94 0.59,1.73 1.38,3.38 1.94,5.2l40.47 205.44c3.53,28.25 7.46,56.14 14.45,83.73 14.38,56.84 16.03,121.63 23.67,180.21l8.85 187.82c6.01,127.68 13.29,257.74 -1.23,385.1 -6.16,54.04 -8.41,110.15 -12.14,164.52 -2.13,31.12 -4.4,62.27 -7.35,93.32 -2.25,23.62 -4.71,48.32 -9.32,71.59 -2.77,13.97 -8.71,22.76 -11.03,38.11l-73.22 355.26c-32.53,92.81 -52.11,189.79 -92.7,279.7l-55.42 127.21c-59.75,114.94 -111.27,234.03 -187.24,339.72l-93.99 130.77c-1.08,1.3 -2.18,2.54 -3.2,3.85l-180.25 220.11c-3.74,3.77 -7.31,6.72 -10.99,10.22 -8.6,8.16 -16.11,16.1 -23.85,25.2l-143.74 137.23c-3.62,3.45 -7.17,6.87 -10.85,10.25 -8.54,7.84 -16.99,15.73 -25.32,23.79 -1.19,1.16 -2.33,2.37 -3.57,3.54l-104.41 85.24c-9.72,8.2 -17.39,14.24 -28.12,21.24 -6.13,4 -10.99,6.41 -16.92,11.04l-132.37 99.43c-5.74,3.68 -11.43,7.35 -17.12,11.02 -1.42,0.92 -2.83,1.86 -4.25,2.78 -1.41,0.92 -2.83,1.84 -4.26,2.79l-281.04 168.49 -292.82 142.61c-3.18,1.55 -6.49,2.91 -9.71,4.37 -1.61,0.74 -3.21,1.49 -4.85,2.22l-75.64 29.69c-96.37,43.53 -198.88,68.13 -298.8,101.58 -52.15,17.46 -107.27,32.19 -160.43,46.37 -31.2,8.32 -62.51,16.38 -93.93,23.79 -22.45,5.3 -46.09,10.89 -68.93,14.1 -14.12,1.99 -28.01,3.09 -41.83,7.2l-108.32 18.14c-10.05,1.97 -16.66,4.33 -26,7.79 -9.93,3.68 -21.04,4.47 -31.53,5.08 -45.62,2.67 -87.42,18.85 -133.69,20.81 -16.14,0.68 -31.43,2 -47.05,6.22 -13.08,3.53 -23.41,6.28 -37.11,7.83 -60.03,6.8 -124.39,0.91 -182.94,13.53 -30.98,6.68 -68.13,5.84 -99.88,5.88 -26.85,0.03 -65.37,-0.86 -90.9,6.87 -36.88,11.17 -51.62,9.04 -89.7,9.04l-1700.06 -0.03c-16.86,7.39 -225.21,8.47 -249.05,8.71 -177.17,1.8 -354.44,1.65 -531.62,1.37 -190.44,-0.3 -380.87,-1.08 -571.31,-1.87 -122.58,-0.51 -245.3,-1.53 -367.87,-1.03 -46.96,0.19 -93.04,-7.21 -140.27,-7.19l-281 0.13c-14.61,0.14 -52.33,1.79 -65.38,-6.92 -12.79,-8.54 -46.54,-7.24 -60.9,-7.24 -0.35,0 -0.66,-0.13 -0.91,-0.39 -0.25,-0.26 -0.37,-0.56 -0.36,-0.92 0.72,-32.1 31.28,-73.46 46.76,-101.47l56.18 -98.31c0.83,-1.5 1.67,-3 2.52,-4.5 0.85,-1.5 1.72,-2.98 2.59,-4.47 0.86,-1.48 1.77,-2.92 2.62,-4.38l67.6 -121.97c0.83,-1.5 1.67,-3 2.5,-4.53l77.26 -133.39c0.81,-1.51 1.58,-3.06 2.39,-4.6l48.54 -91.92c0.84,-1.51 1.76,-2.96 2.62,-4.43l242.14 -430.37c-28.7,2.54 -59.04,2.4 -87.83,2.28 -41.53,-0.16 -83.09,-1.16 -124.6,-2.26 -80.35,-2.15 -161.37,-5.73 -241.71,-5.54 -23.88,0.06 -48.27,0.02 -72.03,-2.56 -20.88,-2.26 -41.24,-6.77 -61.67,-11.53 -0.59,-0.14 -1,-0.66 -0.99,-1.27 0.96,-43.06 39.96,-86.47 60.84,-122.52 1.71,-2.95 3.44,-5.93 5.09,-8.92 0.83,-1.51 1.67,-3.01 2.48,-4.53 22.82,-42.41 47.26,-83.87 70.72,-125.92l54.52 -100c0.92,-1.47 1.89,-2.86 2.78,-4.26l206.42 -362.34c0.87,-1.47 1.8,-2.89 2.62,-4.37l203.64 -365.14c1.64,-3.03 3.19,-6.15 4.78,-9.21 2.41,-4.64 4.66,-9.34 7.15,-13.98l18.52 -30.71c0.92,-1.43 1.87,-2.83 2.76,-4.22l138.5 -247.66c5.89,-10.53 12.59,-20.06 19.07,-30.17l10.59 -17.43c2.62,-4.94 4.51,-8.92 6.71,-14.2l44.21 -89.33c0.88,-1.51 1.76,-2.97 2.6,-4.46l283.82 -495.7c0.96,-1.43 1.81,-2.89 2.68,-4.3l502.2 -895.2c1.84,-2.86 3.85,-5.6 5.7,-8.36l273.27 -485.02c2.43,-4.61 4.6,-9.35 7.12,-13.97l46.61 -79.8c2.55,-4.51 4.91,-9.05 7.58,-13.51l17.99 -31.08c3.05,-6.37 5.59,-12.86 8.92,-19.17 1.6,-3.03 3.37,-6.05 5.08,-9.02 0.85,-1.48 1.8,-2.91 2.66,-4.37l71.59 -125c3.33,-6.1 6.22,-12.4 9.53,-18.55l132.87 -232.32c6.34,-10.4 11.01,-21.33 16.92,-31.94l11.08 -18.13c0.42,-0.66 1.53,-2.33 2.42,-3.83 -0.51,-0.33 -0.68,-1.03 -0.02,-1.83 2.16,-2.59 4.27,-5.23 6.36,-7.84zm931.72 -1659.39l108.51 -191.43c0.9,-1.46 1.88,-2.84 2.75,-4.29 0.87,-1.46 1.79,-2.89 2.6,-4.33l13.66 -28.42c0.78,-1.57 1.61,-3.11 2.44,-4.69l34.64 -56.73c0.93,-1.43 1.92,-2.79 2.8,-4.18l115.02 -207.94c0.83,-1.5 1.69,-2.99 2.51,-4.49l61.94 -113.63c6.07,-10.31 13.08,-19.73 19.33,-29.89 0.89,-1.44 1.8,-2.88 2.66,-4.31l240.69 -426.38c0.85,-1.5 1.67,-3.01 2.52,-4.5l29.83 -54.44c6.53,-11.19 12.24,-19.01 18.17,-30.95l94.7 -165.13c1.61,-3.05 3.16,-6.17 4.8,-9.25l378.14 -675.17c11.36,-20.96 22.66,-41.84 33.12,-63.28 -83.46,4.87 -167.4,-0.29 -250.97,0.69 -38.85,0.46 -74.42,11.15 -112.43,13.88 -37.43,2.69 -74.71,5.53 -112.1,7.18l-361.79 87.36c-1.57,0.65 -3.26,1.28 -4.89,1.96l-28.81 13.29c-11.59,5.34 -14.12,5.74 -25.62,9.54l-193.73 100.97c-1.36,0.9 -2.79,1.8 -4.17,2.7l-71.22 55.03c-1.19,1.09 -2.38,2.24 -3.62,3.35 -5.01,4.49 -10.17,8.55 -15.34,12.82 -15.28,12.61 -30.78,25.29 -45.54,38.49 -5.49,4.91 -11.49,10.31 -16.04,16.14 -3.15,4.04 -5.85,8.49 -8.94,12.62 -7.23,9.66 -15.71,18.86 -23.97,27.64 -45.48,48.35 -96.27,124.8 -122.67,185.68 -3.6,8.3 -6.68,16.28 -10.89,24.38l-5.06 8.99c-0.79,1.5 -1.71,2.95 -2.43,4.37l-87.12 298.94c-7.31,26.78 -8.81,66.55 -10.32,94.6 -0.87,16.02 -1.53,32.05 -2.22,48.08 -0.32,7.53 -0.26,18.36 -1.54,25.65 -1.52,8.63 -2.37,15.04 -8.11,21.65 -4.11,4.74 -4.83,22.29 -5.22,28l2.59 159.34c0.29,1.12 1.27,5.54 2.05,8 2.64,-0.47 5.59,11.83 5.68,12.12 6.42,21.33 5.97,47.87 6.85,70.12 1.25,31.73 4.42,61.21 13.85,91.74 5.12,16.58 7.72,33.49 13.18,49.99 7.03,21.27 11.78,43.27 17.46,64.93 6.72,25.68 14.67,50.06 25.78,74.23 0.74,1.61 1.43,3.23 2.17,4.82l11.6 23.51c3.08,6.45 5.88,13.14 8.41,19.77l28.83 62.32c33.66,56.65 67.15,120.49 109.18,171.32l100.79 116.73c5.25,4.29 10.05,6.96 15.54,10.51zm1448.97 2538.24l-24.49 39.03c-7.2,12.4 -13.35,23.42 -19.53,36.42 -11.93,25.1 -24.8,49.59 -39.07,73.45 -7.19,12.02 -13.95,23.13 -20.52,35.6l-52.33 88.08c-3.07,6.43 -5.02,13.42 -7.98,20.07l-123.81 220.33c-12.87,24.36 -27.1,47.95 -40.02,72.33l-42.44 76.99c-0.9,1.47 -1.87,2.86 -2.74,4.28l-118.85 211.19c-1.74,2.93 -3.61,5.78 -5.32,8.71l-311.95 558.76c-3.39,6.07 -6.1,12.4 -9.63,18.49 -7.71,13.29 -16.98,25.53 -23.73,39.39l-371.38 667.92c-0.84,1.51 -1.69,3 -2.54,4.48l-72.04 131.58c-8.39,14.25 -13.91,20.14 -18.27,36.15 10.22,0.61 19.75,2.18 29.89,3.73 12.97,1.98 25.31,2.86 38.48,2.88l147.5 7.02c36.66,1.08 73.34,3.61 110.02,4.95 32.72,1.19 71.27,2.64 103.6,-2.2 46.13,-6.91 94.37,-9.08 140.97,-10.93 48.08,-1.92 96.33,-2.85 144.35,-5.82 9.11,-0.57 22.51,-0.88 30.18,-6.59 8.39,-6.25 22.8,-6.91 32.79,-7.66 40.85,-3.07 83.16,-11.2 123.12,-20.09 40.11,-8.92 80.43,-19.4 119.51,-31.69l488.16 -269.85c46.17,-42.19 89.61,-89.46 124.6,-141.6l16.93 -25.23c0.99,-1.38 2.01,-2.71 2.96,-4.02l52.78 -87.59c8.97,-15.22 17.67,-28.72 25.22,-44.83 4.67,-9.98 8.67,-19.17 12.55,-29.48l29.32 -68.99c25.63,-64.89 42.44,-131.65 60.84,-198.69l7.2 -48.87c5.63,-45.09 15.9,-84.34 16.85,-130.44l7.38 -358.21c-0.71,-24.08 -6.22,-45.96 -7.11,-70.09 -1.82,-49.57 -17.17,-109.92 -31.95,-157.27 -2.92,-9.35 -4.21,-18.88 -6.86,-28.25l-26.88 -78.31c-0.71,-1.51 -1.61,-3 -2.36,-4.57 -0.75,-1.58 -1.59,-3.12 -2.29,-4.64l-184.66 -292.62c-1.01,-1.23 -2.03,-2.57 -3.01,-3.83l-76.97 -77.36c-12.08,-11.34 -24.45,-22.28 -36.88,-33.16l-157.7 -108.93c-1.34,-0.6 -10.25,-3.97 -11.56,-6.82 -1.97,-0.92 -7.6,-2.41 -10.31,-3.17z"/>
    </g>
    <g>
     <path class="fil2" d="M4383.95 1968.35c-11.25,23.21 -21.47,41.97 -34.1,65.3l-378.14 675.17c-1,1.88 -3.81,7.36 -4.8,9.25l-94.69 165.12c-10.04,20.23 -7.71,13.05 -18.18,30.98l-29.83 54.43c-0.77,1.35 -1.75,3.15 -2.52,4.5l-240.7 426.39c-0.79,1.31 -1.87,3.04 -2.68,4.34 -9.43,15.34 -11.06,15.82 -19.31,29.85l-61.93 113.62c-0.76,1.37 -1.77,3.14 -2.51,4.5l-115.04 207.98c-0.81,1.28 -2,2.94 -2.82,4.21l-34.61 56.68c-0.74,1.4 -1.68,3.19 -2.4,4.62l-13.68 28.45c-0.76,1.35 -1.85,3.07 -2.64,4.39 -0.78,1.31 -1.95,2.99 -2.74,4.28l-109.17 192.59c-19.21,56.77 -389.77,700.69 -429.6,771.09l-376.94 669.85c-11.33,19.71 -37.32,78.12 -55.61,92.41 -7.3,26.4 -56.43,107.62 -68.06,123.84 -16.45,20.57 1.34,-2.6 -9.63,14.56l-11.05 18.1c-7.39,13.26 -9.26,19.36 -16.93,31.95l-132.85 232.29c-4.7,8.73 -5.19,10.61 -9.54,18.56l-71.59 125.02c-0.78,1.33 -1.89,3.04 -2.65,4.37 -1.06,1.83 -4.07,7.1 -5.06,8.98 -4.12,7.82 -5.08,11.18 -8.92,19.18l-18.02 31.13c-3.84,6.41 -3.32,5.97 -7.57,13.49l-46.61 79.79c-2.73,4.98 -5.36,10.64 -7.11,13.95l-273.31 485.08c-1.15,1.73 -4.56,6.6 -5.69,8.35l-502.19 895.19c-0.8,1.29 -1.86,3.07 -2.7,4.32l-283.79 495.66c-0.76,1.35 -1.81,3.1 -2.58,4.43l-44.17 89.25c-3.38,8.16 -3.37,7.93 -6.76,14.31l-10.62 17.47c-7.9,12.33 -11.95,17.53 -19.04,30.11l-138.52 247.69c-0.8,1.28 -1.96,2.98 -2.77,4.24l-18.49 30.66c-3.05,5.69 -4.33,8.57 -7.13,13.94 -0.99,1.9 -3.79,7.38 -4.8,9.24l-203.64 365.15c-0.76,1.35 -1.85,3.07 -2.63,4.39l-206.43 362.35c-0.81,1.28 -1.97,2.97 -2.78,4.25l-54.51 99.97c-24.52,43.95 -46.62,81.12 -70.71,125.91 -0.75,1.39 -1.73,3.17 -2.49,4.54 -1.03,1.86 -4.04,7.12 -5.1,8.94 -20.7,35.75 -59.72,79.39 -60.66,121.91 50.66,11.8 68.91,14.2 133.4,14.06 120.95,-0.28 371.55,13.29 456.45,5.31l1263.96 0.49c21.61,-28.66 58.25,-103.07 75.46,-133.82l304.51 -545.43c24.34,-42.09 49.96,-87.64 75.31,-135.77 49.9,-94.71 99.66,-176.72 153.56,-274.22l913.28 -1636.06c243.52,-435.43 527.71,-929.23 762.65,-1364.76 49.74,-92.21 101.74,-185.35 153.17,-274.67 302.49,-525.35 610.69,-1111.19 914.25,-1635.63 200.84,-346.98 410.27,-750.1 610.91,-1095.09l913.84 -1636.79 -1204.46 7.01 0 -20.93 -8.33 8.21c-1.31,1 -2.92,2.61 -4.45,3.62 -40.85,26.68 -532.12,-3.34 -605.12,9.32 -20.87,7.46 -27.58,29.29 -39.09,50.19l-419.91 745.02c-18.08,31.33 -41.79,89.94 -67.65,107.36z"/>
     <path class="fil3" d="M5990.46 206.91c-8.89,33.11 -57.49,109.52 -77.67,145.51 -27.1,48.34 -52.41,95.12 -78.37,140.04 -55.06,95.26 -105.78,193.24 -156.81,278.03 -23.81,52.02 -145.02,239.94 -149.11,274.13l0 20.93 1204.46 -7.01 -913.84 1636.79c-200.63,344.99 -410.07,748.11 -610.91,1095.09 -303.56,524.44 -611.76,1110.27 -914.25,1635.63 -51.43,89.32 -103.43,182.47 -153.17,274.67 -234.95,435.53 -519.13,929.33 -762.65,1364.76l-913.28 1636.06c-53.9,97.5 -103.66,179.51 -153.56,274.22 -25.35,48.13 -50.96,93.68 -75.31,135.77l-304.51 545.43c-17.21,30.75 -53.85,105.16 -75.46,133.82l-1263.96 -0.49 -243.34 432.49c-0.77,1.34 -1.85,3.06 -2.6,4.41l-48.54 91.91c-0.74,1.4 -1.66,3.22 -2.41,4.62l-77.26 133.4c-0.74,1.38 -1.73,3.17 -2.49,4.53l-67.61 121.98c-0.78,1.33 -1.86,3.06 -2.63,4.39 -0.78,1.35 -1.82,3.1 -2.58,4.46 -0.77,1.35 -1.77,3.13 -2.52,4.49l-56.18 98.31c-21.2,38.36 -45.91,70.07 -46.59,100.87 102.28,0 19.92,15.15 126.28,14.16l281.01 -0.13c57.61,-0.13 88.71,7.41 140.27,7.19 246.84,-1 1684.46,11.15 1719.57,-7.18 2.89,-31.66 170.91,-318.58 199.36,-370.42l69.13 -116.76c5.88,-27.08 167.33,-306.7 192.67,-351.51l482.47 -865.79c19.79,-34.67 78.2,-150.3 103.65,-169.83 4.75,-18.46 9.26,-21.8 18.79,-37.98l72.04 -131.57c0.77,-1.34 1.77,-3.13 2.54,-4.48l371.37 -667.88c7.21,-14.82 14.26,-23.07 23.76,-39.45 4.51,-7.78 6.68,-13.12 9.62,-18.47l311.96 -558.77c1.06,-1.82 4.24,-6.91 5.32,-8.72l118.85 -211.19c0.79,-1.29 1.94,-2.99 2.74,-4.28l42.42 -76.96c15.12,-28.54 25.57,-44.98 40.02,-72.33l123.79 -220.29c3.46,-7.77 4.76,-13.32 7.99,-20.1l52.34 -88.1c9.41,-17.87 10.56,-18.96 20.53,-35.63 15.05,-25.16 27.49,-49.1 39.01,-73.34 8.03,-16.9 9.95,-19.94 19.59,-36.53l25.01 -39.87c4.31,-27.31 693.24,-1255.99 806.23,-1453.81 18.98,-33.24 13.03,-32.38 32.14,-45.91 0.82,-24.13 51.73,-107.68 65.73,-129.38 20.32,-19.01 8.6,-10.25 21.75,-34.56 6.51,-12.03 13.89,-21.08 21.92,-34.26l24.63 -45.58c1,-1.88 3.82,-7.35 4.81,-9.24l268.48 -482.88c0.74,-1.38 1.73,-3.16 2.5,-4.53 0.75,-1.36 1.81,-3.1 2.58,-4.43l203.71 -365.07c2.98,-5.14 8.74,-14.69 10.46,-17.63 8.05,-13.83 15.41,-25.83 23.5,-39.71l258.76 -464.5c0.84,-1.23 2.04,-2.9 2.86,-4.16l174.26 -310.27c9.92,-20.09 8.41,-19.52 19.17,-36.99l44.11 -82.3c0.74,-1.38 1.73,-3.16 2.49,-4.53l213.6 -376.25c3.57,-7.8 4.09,-10.86 8.02,-20.06l33.24 -58.05c1.04,-1.84 3.99,-7.17 5.03,-9.02l173.54 -310.97c0.77,-1.32 1.86,-3.06 2.64,-4.39l15.54 -26.6c7.18,-12.32 15.29,-24.43 20.93,-35.25l103.35 -184.55c0.75,-1.38 1.74,-3.16 2.5,-4.54l40.03 -72.32c16.67,-26.94 25.96,-49.59 41.3,-78.07l405.66 -724.88c0.75,-1.38 1.75,-3.15 2.49,-4.53l56.21 -98.27c0.75,-1.38 1.73,-3.17 2.47,-4.55l60.29 -108.25c0.77,-1.34 1.83,-3.08 2.58,-4.44 0.76,-1.37 1.75,-3.14 2.49,-4.53 0.74,-1.4 1.68,-3.2 2.4,-4.63l273.53 -491.87c0.79,-1.31 1.88,-3.05 2.68,-4.35l63.88 -111.67c14.82,-27.34 27,-51.54 41.12,-78.24 -377.34,0 -737.48,7.02 -1109.48,7.02 -375.02,0 -750.04,0 -1125.06,0z"/>
     <path class="fil4" d="M4659.42 6589.93c24.21,7.29 0.07,-0.04 23.07,10.37l157.86 109.04c12.82,11.21 23.37,20.45 36.99,33.24l77.04 77.44c0.9,1.16 2.17,2.8 3.09,3.93l184.75 292.75c0.68,1.48 1.63,3.24 2.32,4.7 0.69,1.45 1.7,3.18 2.39,4.64l26.91 78.41c3.16,11.19 3.44,17.28 6.86,28.25 0.18,0.59 29.61,92.68 32.01,157.6 1.28,34.92 6.1,36.03 7.11,70.13l-7.38 358.24c-1.07,53.98 -9.98,75.46 -16.86,130.59l-7.22 48.96c-18.94,69.01 -34.54,132.15 -60.91,198.91l-29.32 68.99c-4.45,11.81 -5.79,15.03 -12.58,29.54 -8.86,18.91 -13.83,25.52 -25.28,44.94l-52.81 87.64c-0.87,1.2 -2.12,2.85 -2.98,4.05l-16.92 25.21c-35.07,52.2 -78.92,99.92 -124.92,141.92l-488.39 269.99c-66.34,20.87 -171.94,46.55 -243.04,51.88 -49.14,3.69 -15.52,11.31 -62.99,14.25 -85.4,5.28 -204.53,4.66 -285.2,16.74 -51.96,7.78 -153.64,-0.97 -213.85,-2.73l-147.48 -7.02c-35.31,-0.05 -44.42,-5.43 -69.97,-6.69 -25.45,19.53 -83.86,135.16 -103.65,169.83l-482.47 865.79c-25.33,44.82 -186.79,324.43 -192.67,351.51l582.45 83.44c223.9,20.17 440.56,27.62 673.83,27.7 416.94,0.16 859.32,-70.41 1199.81,-193.49 397.52,-143.68 773.34,-364.69 1063.16,-664.52 16.31,-16.88 23.51,-28.22 40.19,-44.07 16.98,-16.15 29.41,-29.79 44.87,-46.65 136.42,-148.9 256.72,-331.61 355.07,-515.2 87.28,-162.92 192.85,-448.24 227.36,-631.01 8.19,-43.41 25.79,-91.35 31.46,-140.99l34.19 -224.53c2.05,-32.62 0.72,-55.83 6.15,-89.12 7.08,-43.53 6.41,-110.8 7.61,-164.56 1.24,-56.29 9,-50.23 8.99,-161.01 -0.03,-225.47 -12.35,-420.28 -48.38,-644.11 -7.99,-49.59 -19.06,-98.52 -27.66,-150.13 -33.66,-201.97 -139.08,-474.34 -226.49,-644.42 -110.86,-215.69 -279.73,-425.05 -462.6,-576.44 -62.17,-51.47 -122.32,-110.67 -190.69,-160.3 -117.92,-85.61 -168.51,-134.22 -301.11,-218.85 -39.38,-25.13 -89.3,-49.76 -93.31,-74.52 -19.11,13.53 -13.16,12.67 -32.14,45.91 -112.99,197.81 -801.92,1426.5 -806.23,1453.81z"/>
     <path class="fil4" d="M2349.3 5588.34c18.29,-14.29 44.28,-72.7 55.61,-92.41l376.94 -669.85c39.83,-70.41 410.4,-714.32 429.6,-771.09 -6.02,-3.96 -9.12,-5.06 -16.86,-11.4l-100.87 -116.82c-36.32,-43.92 -60.62,-89.56 -109.34,-171.55l-28.87 -62.42c-2.42,-6.33 -5.5,-13.69 -8.38,-19.71l-11.6 -23.51c-0.7,-1.48 -1.49,-3.34 -2.18,-4.84 -24.99,-54.4 -29.53,-97.68 -43.28,-139.29 -6.48,-19.58 -7.06,-30.16 -13.19,-50.01 -21.18,-68.55 -9.02,-123 -20.7,-161.87 -7.4,-24.59 -2.1,2.79 -7.77,-20.32l-2.6 -159.54c3.05,-44.91 7.27,-15.29 13.36,-49.84 1.98,-11.23 3.29,-128.85 14.11,-168.46l87.17 -299.06c0.71,-1.42 1.77,-3.13 2.5,-4.52l5.06 -8.98c5.26,-10.12 7.32,-16.16 10.84,-24.28 25.46,-58.69 79,-139.36 122.91,-186.05 51.62,-54.88 4.41,-20.56 94.61,-94.99 7,-5.76 8.87,-7.02 15.3,-12.79 1.08,-0.96 2.58,-2.4 3.65,-3.37l71.3 -55.09c1.26,-0.82 3,-1.93 4.26,-2.76l193.88 -101.05c19.21,-6.36 5.47,-0.19 25.59,-9.53l28.83 -13.29c1.57,-0.66 3.44,-1.36 5.02,-2.01l362 -87.41c42.18,-1.87 68,-4.02 112.18,-7.19 37.24,-2.67 70.15,-13.39 112.51,-13.88 82.68,-0.97 171.31,4.13 253.08,-0.81 25.86,-17.43 49.57,-76.03 67.65,-107.36l419.91 -745.02c11.51,-20.9 18.21,-42.73 39.09,-50.19 73,-12.67 564.27,17.36 605.12,-9.32 1.54,-1 3.14,-2.62 4.45,-3.62l8.33 -8.21c4.09,-34.19 125.3,-222.11 149.11,-274.13 -25.88,0.96 -228.58,-58.15 -270.08,-70.93 -43.01,-13.23 -89.87,-20.51 -134.41,-33.61 -46.19,-13.6 -92.48,-14.62 -141.29,-27.02 -110.66,-28.11 -481.96,-79.24 -593.82,-80.95 -38.75,-0.6 -38.65,-7.26 -69.98,-9.8 -75.8,-6.16 -171.93,4.12 -248.57,-6.73 -126.3,-17.86 -478.29,14.24 -629.89,36.46 -467.99,68.59 -849.16,203 -1224.85,460.09 -283.68,194.12 -562.94,477.53 -734.86,782.28 -22.44,39.78 -38.55,69.51 -60.12,109.31 -40.76,75.22 -73.68,149.73 -106.01,230.09 -61.63,153.18 -121.25,354.42 -149.51,527.22 -5.08,31.1 -9.46,44.92 -12.94,69.15 -1.68,11.71 -4.91,32.78 -5.77,36.44l-40.19 679.83c-0.02,52.17 9.07,102.96 10.21,161.36 2.55,129.64 46.75,450.5 85.91,589 114.34,404.28 195.07,571.68 452.55,895.48 76.74,96.51 257.36,246.37 354.65,319.47 35.44,26.62 180.12,119.19 190.67,150.73z"/>
     <path class="fil5" d="M5497.79 5090.21c4.01,24.76 53.94,49.4 93.31,74.52 132.61,84.63 183.2,133.24 301.11,218.85 68.37,49.63 128.52,108.82 190.69,160.3 182.87,151.38 351.74,360.74 462.6,576.44 87.41,170.07 192.83,442.45 226.49,644.42 8.6,51.61 19.68,100.55 27.66,150.13 36.03,223.83 48.36,418.64 48.38,644.11 0.01,110.78 -7.75,104.72 -8.99,161.01 -1.19,53.77 -0.52,121.04 -7.61,164.56 -5.43,33.3 -4.1,56.51 -6.15,89.12l-34.19 224.53c-5.66,49.64 -23.26,97.58 -31.46,140.99 -34.51,182.77 -140.07,468.09 -227.36,631.01 -98.35,183.59 -218.65,366.31 -355.07,515.2 -15.45,16.86 -27.88,30.5 -44.87,46.65 -16.67,15.86 -23.87,27.19 -40.19,44.07 -289.81,299.83 -665.64,520.84 -1063.16,664.52 -340.49,123.07 -782.87,193.64 -1199.81,193.49 -233.27,-0.08 -449.93,-7.53 -673.83,-27.7l-582.45 -83.44 -69.13 116.76c-28.45,51.84 -196.47,338.77 -199.36,370.42l1700.34 0.03c46.5,0.2 51.83,2.36 89.33,-8.98 43.95,-13.31 135.8,-0.9 190.87,-12.77 56.21,-12.11 119.06,-6.29 183.07,-13.55 37.05,-4.2 33.34,-11.9 84.25,-14.06 51.85,-2.19 84.42,-17.93 133.67,-20.81 36.95,-2.16 27,-6.9 57.37,-12.85l108.27 -18.12c14.03,-4.18 26.18,-5.01 41.93,-7.22 63.62,-8.94 262.59,-63.97 323.06,-84.21 99.87,-33.44 201.32,-57.56 298.71,-101.55l75.65 -29.69c1.51,-0.67 3.32,-1.52 4.82,-2.21 1.99,-0.9 7.73,-3.43 9.68,-4.36l292.77 -142.58 280.97 -168.45c1.25,-0.83 2.98,-1.96 4.24,-2.78 1.27,-0.83 2.99,-1.96 4.25,-2.78 6.06,-3.92 9.74,-6.29 17.08,-11l132.33 -99.4c9.35,-7.31 7.34,-4.8 17,-11.1 13.77,-8.99 16.17,-11.17 28,-21.16l104.37 -85.21c1.05,-1 2.49,-2.5 3.53,-3.5 9.02,-8.73 14.76,-14.09 25.34,-23.81 6.72,-6.17 6.09,-5.69 10.83,-10.24l143.7 -137.19c9.31,-10.98 14.8,-16.61 23.89,-25.26 3.87,-3.66 2.31,-1.48 10.92,-10.15l180.2 -220.05c0.9,-1.16 2.26,-2.71 3.19,-3.83l93.97 -130.73c75.96,-106.42 127.21,-224.28 187.12,-339.53l55.4 -127.18c40.65,-90.04 60.74,-188.5 92.64,-279.52l73.19 -355.15c3.41,-22.6 7.46,-20.1 11.03,-38.13 14.07,-71.02 20.74,-258.55 28.8,-329.33 14.44,-126.66 6.6,-259.74 1.22,-384.9l-8.84 -187.77c-6.75,-51.75 -11.11,-130.48 -23.63,-180.01 -7.33,-28.98 -11.11,-56.99 -14.47,-83.84l-40.45 -205.33c-0.53,-1.7 -1.35,-3.43 -1.92,-5.1 -0.57,-1.66 -1.44,-3.36 -2.02,-5.01l-16.19 -75.09c-6.07,-19.55 0.16,1.44 -5.71,-15.37l-3.63 -10.41c-0.55,-1.77 -1.06,-3.64 -1.59,-5.43l-37.79 -123.72c-3.73,-13.29 -6.62,-23.41 -12.1,-37.05l-88.86 -213.08c-0.7,-1.44 -1.67,-3.19 -2.37,-4.65l-158.44 -283.94c-7.22,-12.08 -11.46,-16.9 -20.34,-28.81l-65.31 -89.18c-6.84,-8.59 -2.73,-2.77 -9.5,-11.57l-146.67 -169.32c-1.46,-1.42 -5.62,-5.55 -7.04,-7l-103.53 -100.11c-23.63,-18.48 -31.4,-25.65 -53.11,-45.19l-208.71 -163.46c-1.16,-0.9 -2.76,-2.21 -3.94,-3.08l-49.25 -35.02c-1.16,-0.9 -2.79,-2.18 -3.95,-3.08l-12.07 -8.99c-1.16,-0.9 -2.79,-2.18 -3.94,-3.08l-241.63 -165.65c-5.41,-3.43 -3.29,-1.54 -13.03,-8.03l-507.91 -278.69c-14,21.7 -64.91,105.26 -65.73,129.38z"/>
     <path class="fil5" d="M2281.25 5712.18c11.63,-16.22 60.76,-97.44 68.06,-123.84 -10.55,-31.54 -155.23,-124.11 -190.67,-150.73 -97.29,-73.1 -277.91,-222.95 -354.65,-319.47 -257.48,-323.8 -338.21,-491.2 -452.55,-895.48 -39.16,-138.5 -83.36,-459.37 -85.91,-589 -1.14,-58.39 -10.23,-109.19 -10.21,-161.36l40.19 -679.83c0.86,-3.66 4.09,-24.72 5.77,-36.44 3.48,-24.23 7.86,-38.05 12.94,-69.15 28.27,-172.8 87.88,-374.04 149.51,-527.22 32.33,-80.36 65.25,-154.87 106.01,-230.09 21.57,-39.8 37.69,-69.54 60.12,-109.31 171.91,-304.75 451.18,-588.16 734.86,-782.28 375.68,-257.08 756.85,-391.5 1224.85,-460.09 151.6,-22.22 503.6,-54.32 629.89,-36.46 76.64,10.85 172.77,0.57 248.57,6.73 31.33,2.54 31.23,9.21 69.98,9.8 111.86,1.72 483.15,52.84 593.82,80.95 48.81,12.4 95.1,13.42 141.29,27.02 44.54,13.1 91.4,20.38 134.41,33.61 41.5,12.78 244.21,71.88 270.08,70.93 51.03,-84.79 101.75,-182.77 156.81,-278.03 25.96,-44.92 51.27,-91.7 78.37,-140.04 20.18,-35.99 68.78,-112.4 77.67,-145.51l-1901.44 0c-100.96,0 -168.23,14.06 -267.06,13.83l-172.34 17.26c-51.35,11.39 -117.16,8.93 -167.85,21.74 -30.72,7.76 -35.89,-1.02 -84.99,13.32 -31.32,9.15 -75.97,6.16 -106.64,12.73l-98.02 21.35c-92.59,25.87 -188.92,40.36 -284.81,73.32 -1.66,0.57 -3.39,1.41 -5.02,2l-48.97 14.23c-13.25,4.11 -12.49,4.73 -15.28,5.78l-124.91 43.62c-17.31,5.17 -19.94,5.12 -36.85,12.31l-135.62 53.97c-9.86,4.27 -22.01,10.48 -33.53,15.62l-276.59 137.72c-1.32,0.79 -3.05,1.86 -4.39,2.63 -11.85,6.81 -21.15,11.06 -32.21,16.94l-134.81 82.87c-71.73,39.08 -152.12,100.15 -213.3,151.86 -1.56,1.32 -6.01,5.14 -7.6,6.44l-62.63 49.73c-1.1,0.94 -2.7,2.27 -3.81,3.21l-252.85 231.67c-51.55,57.02 -108.53,113.48 -153.5,176.53l-196.59 287.93c-12.07,20.63 -21.51,35.68 -33.33,57.96l-33.9 64.41c-2.75,5.77 -3.71,8.34 -6.62,14.45l-4.61 9.44c-59.73,122.71 -94.74,213.42 -144.26,340.26l-24.05 74.26c-0.61,1.58 -1.51,3.32 -2.11,4.91 -0.61,1.62 -1.43,3.37 -2,5.02l-17.04 60.21c-4.86,15.35 -4.56,21.31 -9.58,39.58 -21.02,76.54 -43.22,155.88 -52.18,235.71 -6.38,56.79 -21.17,104.02 -22.14,167.46 -0.08,5.61 0.08,15.15 -0.66,20.41 -4.93,35.29 -2.38,9.47 -6.65,21.45 -22.01,61.91 -27.88,408.48 -28.25,498.73l16.35 271.55c5.79,32.91 4.19,97 14.03,126.4 10.16,30.36 8.58,112.45 22.46,167.14l26.27 149.28c0.46,1.87 1.01,3.66 1.54,5.48l9.13 25.97c1.96,8.79 1.93,15.9 2.99,25.09 6.36,54.17 32.99,131.91 50.88,180.85l111.48 288.78c4.05,8.67 4.15,10.44 8.17,19.92l47.91 92.52c7.81,16.28 7.17,17.17 15.91,33.25 40.99,75.47 90.57,142.02 138.43,212.68l130.63 164.3c5.56,5.96 6.97,8.1 13.5,14.58l83.41 85.12c1.14,0.92 2.81,2.16 3.95,3.08l46.77 44.51c1.02,1.02 2.48,2.5 3.51,3.52l473.56 348.02c11.85,7.33 0.2,-0.03 12.57,8.5l104.16 64.36c13.2,7.1 21.96,11.01 32.39,16.77l129.76 70.77z"/>
    </g>
   </g>
   <g>
    <path class="fil6" d="M25034.95 1914.27l0 -429.43 -1179.3 0 0 567.72c110.81,25.81 331.6,-8.07 416.29,64.15l41.54 89.48c20.07,106.85 8.06,1709.18 8.06,1957.14 0,36.38 -8.67,48.7 -12.6,74.74 -5.81,38.43 -1.25,47.42 -15.08,79.55 -1.43,3.31 -12.63,25.27 -14.86,28.8 -29.76,47.11 -100.76,65.75 -155.07,70.59l-81.38 13.25c-42.87,10.49 -157.78,-14.04 -157.78,31.49 0,107.46 -11.75,442.4 7.28,524.05l1550.57 0.03c35.68,0.21 87.33,11.32 87.33,-21.86l0 -553.16 -101.91 0c-53.2,0 -78.09,-12.34 -123.7,-14.61 -45.96,-2.29 -98.9,0.06 -145.65,0.06 -3.8,-16.33 -7.28,-16.73 -7.28,-36.4l0 -1703.16c0,-31.24 11.12,-21.88 14.2,-58.59l9.56 -63.23c0.6,-1.71 1.48,-3.49 2.04,-5.24l14.68 -65.38c32.4,-95.35 79.5,-191.68 152.64,-262.26l141.33 -106.16c1.34,-0.65 14.36,-5.97 15.41,-6.42l124.12 -43.31c78.15,-26.61 246.07,-20.74 333.71,-7.75l151.31 59.78c1.38,0.81 3.23,1.86 4.58,2.71 48.85,30.55 87.06,85.8 108.89,138.59 33.63,81.34 41.33,175.89 60.1,260.17 8.79,39.46 0.41,100.44 7.24,145.6 13.02,86.05 3.07,1360.75 3.07,1547.25 0,78.19 -7.77,138.46 -64.11,183.37 -56.53,45.05 -139.49,35.71 -202.55,52.23 -28.43,7.45 -51.34,4.06 -83.03,4.32 -39.82,0.33 -43.25,7.55 -79.81,7.55l0 538.6c83.32,19.42 680.13,7.28 815.31,7.28 274.19,0 548.39,0 822.58,0 18.89,-81.06 7.29,-443.61 7.29,-553.16 0,-34.63 -101.43,-19.44 -187.91,-30.47 -33.64,-4.29 -59.45,-6.26 -103.29,-5.91 -35.64,0.29 -87.34,11.27 -87.34,-21.86 0,-238.91 -12.22,-1681.32 8.4,-1803.95l140.39 -325.45c4.4,-5.15 7.26,-8.26 10.19,-11.65 31.7,-36.66 60.8,-67.77 100.17,-96.36 3.62,-2.63 9.43,-6.74 12.9,-8.93 1.33,-0.85 3.18,-1.92 4.54,-2.74 1.37,-0.83 3.24,-1.84 4.63,-2.65l45.88 -26.91c3.15,-1.51 13.15,-5.18 15.68,-6.16 157.68,-60.11 177.36,-58.87 356.06,-58.87 65.76,0 120.4,9.22 175.45,28.38 48.4,16.85 90.37,40.22 126.48,77.34l17.9 18.48c21.13,23.52 37.3,60.68 49.53,88.77l8.38 20.74c18.46,48.29 16.66,65.14 21.8,80.09l15.23 93.96c4.53,42.22 14.04,43.43 15.06,86.84 3.69,157.32 7.22,80.67 14.07,138.77 8.84,74.9 -1.18,1555.5 -1.29,1556.02 -8.7,41.04 -3.53,-11.39 -12.36,38.59 -7.11,40.2 -14.72,85.21 -48.59,111.56l-13.14 8.68c-11.62,6.91 2.69,-1.36 -9.46,5.11l-14.51 7.32c-1.51,0.73 -3.38,1.66 -4.89,2.38 -95.66,45.7 -332.39,21.59 -332.39,67.99l0 494.93c0,17.03 12.08,29.11 29.12,29.11l1608.78 0c17.04,0 29.12,-12.08 29.12,-29.11l0 -524.05c0,-28.08 -23.2,-22.68 -50.32,-22.47 -26.49,0.21 -54.53,1.63 -80.95,0.87 -52.67,-1.51 -85.34,-14.8 -145.35,-14.8l-123.76 0 0 -1914.24c0,-91.48 -15.75,-153.36 -21.56,-233.19l-9.62 -41.33c-0.57,-1.77 -1.4,-3.53 -1.92,-5.36 -5.4,-19.13 -5.84,-45.31 -8.33,-57.17 -12.69,-60.28 -33.56,-108 -52.89,-165.48l-28.56 -73.34c-2.49,-5.34 -5.68,-11.1 -9.94,-19.17l-64.73 -109.96c-0.89,-1.25 -2.23,-2.92 -3.13,-4.16 -0.89,-1.23 -2.23,-2.89 -3.14,-4.14l-68.51 -91.62c-9.82,-12.4 -2.5,-4.47 -13.67,-15.45l-220.7 -165.08c-1.51,-0.73 -3.41,-1.63 -4.92,-2.36l-19.52 -9.6c-13.18,-6 -25.22,-10.47 -40.76,-17.47l-146.68 -49.86c-149.15,-39.91 -357.02,-46.42 -505.79,-28.41 -77.92,9.42 -152.5,31.99 -225.03,51.58l-96.54 34.49c-15.17,6.11 -22.08,6.98 -37.39,13.57 -8.24,3.53 -18.95,8.8 -29.71,13.96l-42.07 23.46c-1.38,0.8 -3.21,1.87 -4.6,2.67l-46.96 25.84c-100.38,59.46 -197.74,140.86 -272.7,229.55 -9.71,11.49 -13.39,15.24 -24.31,26.64l-30.5 35c-19,24.69 -44.95,42.12 -47.77,75.97l-21.84 0c-2.69,-32.39 -17.94,-52.33 -31.67,-77.52l-187.13 -242.32 -220.62 -136.07c-102.81,-49.24 -247.81,-82.7 -361.33,-82.7 -219.95,0 -314.02,-3.63 -512.03,55.77 -14.12,4.24 -24.82,5.15 -35.31,8.36 -10.8,3.31 -10.13,3.79 -15.75,6.09l-291.2 152.83 -198.31 180.21c-5.71,6.04 -5.21,5.18 -10.83,11 -34.1,35.32 -60.07,89.45 -101.3,117.07z"/>
    <path class="fil6" d="M25988.57 7846.22l0 -422.15 -1186.57 0 0 567.72c49.88,11.62 88.48,4.44 145.68,7.2 27.3,1.32 42.03,7.47 68.22,11.85 77.17,12.94 204.12,-14.38 234.64,85.66 7.49,24.55 17.36,37.23 17.36,62.7 0,261.12 12.23,1889.48 -8.36,2007.79 -5.89,33.85 -7.53,78 -24.5,106.51l-121.87 74.67c-1.71,0.58 -3.45,1.55 -5.14,2.14l-104.19 12.28c-28.78,3.84 -54.01,0.04 -82.57,4.78 -31.9,5.3 -46.29,11.78 -82.86,11.78l0 538.61 1637.9 0 0.33 -502.56c0.47,-25.18 6.27,-49.35 -14.89,-57.89 -9.04,-22.4 9.96,-15.28 -80.04,-14.59l-276.65 -7.25c0,-557.95 -7.18,-1116.44 -0.29,-1674.33l39.67 -266.04c0.64,-1.67 1.38,-3.57 2.02,-5.26l239.8 -327.95c43.54,-29.92 89.3,-49.25 138.24,-65.57 84.71,-28.27 196.07,-33.63 286.68,-33.63 31.07,0 27.89,5.71 54.16,11.36l104.14 19.62c1.68,0.63 3.55,1.42 5.23,2.05 2.18,0.8 8.57,2.99 10.75,3.81 51.59,19.32 100.01,47.2 136.24,89.4l16.22 20.18c19.68,27.51 33.88,63.81 43.11,95.19 17.04,57.93 29.5,98.56 38.24,165.56 5.47,42 9.34,11.25 13.97,51.55 2.51,21.91 -1.38,48.06 1.22,71.57 4.64,42.08 6.21,79.68 6.21,132.08l0 1550.31c0,103.54 -49.82,143.32 -135.68,170.04 -1.8,0.55 -3.65,1.27 -5.42,1.86 -64.12,21.5 -129.35,10.13 -192.98,18.13 -31.1,3.9 -57.92,13.78 -95.41,13.78l0 531.32c16.33,3.81 16.73,7.29 36.4,7.29l1594.22 0c38.46,0 21.85,-95.51 21.84,-123.73 -0.01,-80.13 7.6,-342.98 0.82,-408.41 -4.58,-44.23 6.51,-19.48 -15.38,-28.31 -9.04,-22.4 9.97,-15.28 -80.04,-14.59l-189.06 -7.5c-34.01,-0.04 -68.12,0.25 -102.16,0.25l0 -1572.15c0,-111.76 2.1,-235.34 33.93,-337.29l25.69 -83.48c42.16,-102.95 104.99,-191.43 191.92,-259.38l20.98 -15.41c1.28,-0.88 3.03,-2.1 4.33,-2.96 1.3,-0.87 3.09,-2.02 4.41,-2.86 45.25,-29.14 87.65,-46.01 139.08,-64.74 74.57,-27.18 252.6,-46.81 328.56,-26.33 33.66,9.07 81.12,8.74 116.55,21.76 1.69,0.62 3.53,1.45 5.19,2.08 1.69,0.64 3.56,1.41 5.24,2.05 18.47,6.93 19.47,6.44 36.81,14.15l47.61 25.18c9.23,5.88 6.13,2.96 16.98,12.14 38.92,32.88 65.96,71.27 86.56,117.25l38.45 114.41c20.92,70.71 20.39,164.47 26.41,206.5 4.61,32.17 14.21,27.09 14.74,65.32 7.16,519.17 -2.02,1038.93 -0.53,1558.15 0.05,16.44 0.96,35.37 0.48,51.42 -1.06,35.45 -2.45,24.04 -10.48,47.75l-26.04 68.58c-13.72,24.25 -31.3,38.41 -57.1,52.1 -52.76,28 -109.13,27.16 -170.01,33.81l-138.31 14.55c-22.72,3.21 -35.32,-1.77 -35.32,22.91l0 487.67c0,17.03 12.08,29.11 29.12,29.11l1616.06 0c38.45,0 21.84,-95.51 21.84,-123.73l0.17 -371.39c1.22,-73.1 6.9,-56.6 -14.73,-65.33 -11.14,-27.61 -26.81,-14.83 -87.35,-14.57l-298.48 -7.27 0 -1987.02c0,-92.56 -23.35,-177.33 -39.27,-266.43l-43.93 -145.32c-0.64,-1.66 -1.43,-3.54 -2.08,-5.19l-6.55 -15.29c-2.87,-7.29 -5.22,-15.06 -7.59,-21.52 -9.49,-25.93 -9.35,-19.9 -19.67,-45.84l-43.15 -87.88c-0.77,-1.43 -1.81,-3.26 -2.62,-4.65l-17.4 -26.28c-32.19,-49.7 -69.69,-100.34 -112.82,-141.94l-257.74 -179.02 -134.31 -47.68c-23.94,-7.9 -0.4,-2.25 -21.55,-7.56l-81.04 -13.59c-105.95,-29.76 -230.54,-25.36 -338.6,-25.36 -38.97,0 -39.04,13.04 -80,14.64l-82.78 11.85c-39.41,9.73 -72.4,9.8 -115.01,23.3 -14.33,4.54 -27.41,5.31 -41.85,9.1l-164.56 68.37c-15.85,8.45 -22.32,11.04 -34.19,16.76l-32.5 18.46c-1.38,0.81 -3.17,1.94 -4.56,2.73l-208.33 155.61c-5.23,5 -4.08,4 -11.29,10.55l-149.08 163.93c-0.87,1.28 -1.99,3.11 -2.84,4.43l-5.41 9.15c-11.27,18.12 -16.32,27.5 -43.06,29.72l-205.92 -303.6 -267.11 -162.36c-29.62,-10.9 -28.5,-12.97 -65.35,-22 -12.77,-3.12 -9.2,-2.45 -16.83,-5.01l-124.15 -28.71c-24.56,-5.75 -52.85,-1.02 -81.01,-6.35 -70.44,-13.32 -148.8,-10.58 -222.36,-10.58l-439.57 99.11 -196.91 108.82c-7.87,4.56 -6.52,3.28 -13.88,7.95l-42.28 30.5c-9.86,7.75 -12.8,11.36 -23.45,20.23l-24.98 18.68c-1.25,0.9 -3.04,2.1 -4.27,3.01 -7.97,5.93 -16.35,13.26 -23.42,20.25l-7.18 7.38c-1.04,1.08 -2.54,2.62 -3.59,3.69l-177.8 200.71c-11.11,10.34 -2.51,5.34 -18.12,10.99z"/>
    <path class="fil6" d="M9791.55 1579.46l24.43 346.77 38.09 151.15c1.15,3.32 5.13,12.61 6.23,15.62l116.52 254.69c1.19,1.81 4.63,6.93 5.83,8.73l238.02 242.39c10.09,6.38 14.55,8.6 26.46,17.21l98.99 68.43c22.18,14.33 29.98,19.17 54.87,32.49l331.71 156 195.63 66.42c1.19,0.37 15.86,3.82 17.62,4.22l73.11 21.51c1.85,0.56 3.79,1.1 5.59,1.7 1.77,0.58 3.66,1.29 5.39,1.89l363.83 109.32c8.12,2.66 8,1.99 16.7,5.14l297.49 131.99c16.81,9 35.45,19.5 50.44,29.63 6.83,4.61 5.33,3.8 12.49,9.35l105.36 91.18c9.24,10.58 12.09,15.19 19.09,24.58l75.72 142.65c18.86,63.47 27.76,113.59 26.58,185.08l-69.86 316.25c-3.08,5.6 -6.55,10.47 -8.38,13.45l-56.54 81.76c-29.05,32.26 -58.04,63.78 -94.28,87.71l-30.89 20.06c-1.32,0.85 -3.09,2.02 -4.42,2.86 -1.33,0.84 -3.11,2 -4.46,2.82l-235.61 91.96 -151.18 23.52c-107.55,0 -359.22,12.65 -448.65,-9.95 -23.72,-6 -27.62,-3.34 -53.01,-5.23 -17.06,-1.27 -32.57,-3.41 -51.43,-6.81l-135.91 -46.07c-36.32,-17.73 -76.22,-33.77 -95.79,-71.64l-9.2 -19.91c-26.57,-69.5 -15.3,-391.26 -13.62,-488.6 1,-57.9 3.73,-63.75 -54.03,-54.02 -37.09,6.25 -75.33,2.73 -114.12,3.21l-220.88 19.35c-74.48,12.49 -214.21,-2.85 -332.08,24.62l0 1099.05 65.25 29.38c11.9,4.98 18.28,5.57 32.64,11.04l139.59 56.95c1.64,0.64 3.46,1.54 5.08,2.2l114.1 38.75c1.65,0.64 3.45,1.55 5.11,2.17l436.61 102.08c16.15,2.31 67.13,3.59 85.57,9.06 39.6,11.74 35.22,8.19 84.21,10.42 25.15,1.14 55,5.17 86.14,8.48 262.06,27.91 459.89,14.64 714.37,-8.77 30.23,-2.79 23.61,-7.38 46.14,-12.1 37.89,-7.91 67.52,-5.27 101.62,-14.85l52.98 -12.53c1.84,-0.52 3.66,-1.27 5.43,-1.85 1.76,-0.56 3.53,-1.44 5.26,-2.03 1.71,-0.58 3.47,-1.51 5.19,-2.08l279.68 -91.57 436.42 -284.21c1.05,-1.07 2.57,-2.6 3.61,-3.67l60.75 -62.99c9.88,-10.58 20.35,-18.22 29.55,-28.68 6.5,-7.4 1.57,-1.14 9.41,-12.42l89.94 -121.15c34.97,-58.67 68.61,-118.39 94.16,-182.44l27.8 -74.11c0.63,-1.71 1.28,-3.65 1.91,-5.36 22.04,-60.66 39.61,-122.66 45.33,-187.58 3.21,-36.49 8.82,-34.5 14.36,-65.7 6.63,-37.34 -0.69,-72.64 10.52,-105.94 7.38,-21.87 5.17,-56.25 5.07,-82.26 -0.15,-42.52 7.64,-102.83 -5.07,-140.52l-42.63 -263.07c-0.58,-1.81 -1.23,-3.66 -1.75,-5.53 -20.64,-73.84 -37.07,-142.94 -70.7,-213.18 -30.06,-62.8 -65.48,-120.89 -108.51,-175.35l-77.56 -89.86c-0.42,-0.46 -13.17,-15.08 -13.58,-15.53l-18.38 -18.01c-1.11,-1.02 -2.76,-2.4 -3.88,-3.4l-26.74 -24.22c-1.17,-0.95 -2.83,-2.3 -4.03,-3.24 -1.67,-1.32 -6.61,-4.96 -8.34,-6.22l-269.67 -188.92c-1.95,-1.04 -7.63,-3.94 -9.53,-5.03l-76.94 -46.81c-7.93,-3.98 -13.74,-5.98 -20.07,-9.04l-282.67 -124.96c-1.65,-0.65 -3.53,-1.47 -5.16,-2.12l-135.53 -46.46c-14.58,-4.06 -15.19,-5.21 -21.54,-7.57l-15.95 -5.89c-1.79,-0.6 -3.76,-1.12 -5.56,-1.71l-87.56 -28.91c-18.9,-7.11 4.18,0.11 -15.81,-6.03l-184.08 -56.14c-1.78,-0.6 -3.67,-1.23 -5.48,-1.8 -1.84,-0.58 -3.77,-1.09 -5.64,-1.64l-324.2 -112.56c-1.48,-0.72 -3.28,-1.79 -4.75,-2.54l-173.06 -103.54c-30.12,-19.01 -48.29,-47.95 -70.11,-75.48 -4.29,-5.41 -5.6,-6.83 -9.92,-11.91l-10.13 -11.71c-35.89,-43.5 -67.51,-102.34 -82,-158.2l-14.01 -44.22c-19.32,-84.66 -15.97,-196.51 8.37,-277.88 3.17,-10.59 4.35,-18.31 6.8,-29.59 9.69,-44.47 23.27,-69.14 44.27,-108.58 3.24,-6.06 9.69,-17.88 13.16,-23.23 31.31,-48.21 54.9,-71.89 97.45,-106.36 59.1,-47.9 129.52,-82.23 202.78,-102.95 9.38,-2.65 22.27,-8.59 26.23,-10.16l56.92 -15.86c44.2,-14.56 96.61,-5.97 143.59,-16.56 30.79,-6.94 2.39,-12.38 31.3,-12.38l320.29 0c28.57,0 0.13,7.66 37.36,13.59 60.82,9.7 78.49,-0.27 150.32,24.38 23.93,8.21 53.64,21.19 74.98,34.21l59.51 56.95c30.95,52.53 27.33,134.94 27.26,198.39 -0.51,414.53 -27.04,350.87 87.05,349.09 82.13,-1.29 140.59,-4.72 218.92,-6.77 32.33,-0.85 70.1,-9.5 96.28,-12.9 37.61,-4.88 76.85,-0.52 114.99,-1.49 51.71,-1.32 36.92,-15.06 93.85,-15.35 48.46,-0.26 69.42,2.46 109.58,-6.9l0 -1040.82 -89.81 -41.22c-1.52,-0.7 -3.34,-1.72 -4.82,-2.45l-86.35 -37.4c-22.35,-9.38 -39.46,-15.48 -64.03,-23.33l-64 -23.34c-16.89,-4.28 -19.72,-2.77 -35.34,-8.34 -1.68,-0.6 -3.49,-1.51 -5.13,-2.15l-25.91 -10.49c-27,-9.28 -40.75,-11.85 -67.85,-19.51 -69.65,-19.67 -135.35,-43.76 -206.65,-55.41 -15.03,-2.46 -24.71,-1.25 -39.46,-4.21 -14.98,-3.01 -18.38,-6.71 -33.58,-10.1l-150.39 -24.31c-86.53,-2.79 -154.11,-21.6 -247.74,-21.6 -209.68,0 -433.95,-15.6 -635.94,33.77 -71.63,17.5 -96.12,9.29 -206.31,48.48 -18.84,6.7 -9.19,5.12 -32.19,11.48 -18.04,4.99 -16.3,2.53 -34.16,9.52l-148.18 62.92c-21.04,9.53 -40.94,19.38 -57.85,29.5l-250.71 164.19 -69.27 69.03c-2.49,2.51 -6.58,6.42 -11.01,10.83l-116.24 131.24c-0.91,1.22 -2.25,2.89 -3.19,4.09 -0.93,1.19 -2.33,2.83 -3.28,4 -47.7,58.43 -74.5,119.43 -110.57,187.85l-5.29 9.28c-0.77,1.41 -1.92,3.18 -2.68,4.59l-74.97 216.17 -43.48 298.62z"/>
    <path class="fil6" d="M12892.65 7846.22l0 -422.15 -1186.57 0 0 560.44c130.76,0 85.46,13.57 137.82,15.06 47.57,1.34 101.1,-1.12 146.1,6.76 21.27,3.72 47.28,5.06 69.9,10.17 34.37,7.79 61.16,31.06 78.42,59.88 0.82,1.38 1.84,3.24 2.61,4.66 0.79,1.44 1.7,3.36 2.45,4.83 19.49,38.15 14.32,41.6 23.73,85.46 6.77,31.59 12.14,2.35 12.14,31.54l0 1950.63c0,25.68 -4.8,4.6 -10.63,25.77 -12.85,46.69 -3.96,63.67 -29.54,101.48l-49.61 45.02c-20.51,13.34 -36.63,13.26 -60.34,19.72 -85.43,23.28 -152.2,10.43 -209.69,23.26 -36.11,8.06 -32.65,10.38 -76.97,10.38l0 516.77c0,16.77 5.06,21.84 21.84,21.84l1616.06 0c43.18,0 29.15,-74.61 29.12,-116.46l0 -443.99c-36.01,-3 -38.69,-15.22 -87.14,-14.78 -36.47,0.35 -73.19,0.52 -109.66,0.47 -43.74,-0.06 -52.78,-7.31 -94.1,-7.81 -36.21,-0.45 -73.16,0.28 -109.49,0.28l0 -1754.11 25.97 -126.89c0.71,-2.27 3.18,-8.39 3.98,-10.57l6.1 -15.73c5.72,-15.27 6.21,-16.41 12.38,-31.29l36.21 -80.25c0.81,-1.38 1.89,-3.21 2.72,-4.57l5.77 -8.8c0.84,-1.3 2.15,-2.97 2.99,-4.28l90.05 -121.04 210.92 -153.04c42.63,-16.27 76.42,-32.51 119.93,-40.21 97.17,-17.21 144.42,-21.99 247.35,-21.99l214.94 47.11c137.03,56.51 209.64,159.73 241.81,296.83l8.27 28.12c17.42,51.33 44.54,296.65 44.54,348.5l0 1448.42c0,44.63 -11.62,100.71 -31.14,136.27 -27.27,49.65 -68.11,62.99 -117.21,79.32 -67.77,22.56 -144.77,6.61 -211.45,21.5 -36.11,8.06 -32.65,10.38 -76.97,10.38l0 516.77c0,16.77 5.06,21.84 21.84,21.84l1623.34 0c38.46,0 21.85,-95.51 21.84,-123.73l0 -436.71c-28.92,-7.72 -8.67,-8.88 -37.31,-13.64 -50.76,-8.45 -108.39,-0.59 -159.49,-0.66 -43.74,-0.06 -52.78,-7.31 -94.1,-7.81 -36.21,-0.45 -73.16,0.28 -109.48,0.28l0 -1885.12c0,-53.35 -1.59,-140.4 -11.46,-185.07l-30.87 -172.93c-22.23,-120.62 -100.09,-301.8 -179.32,-395.71l-49.37 -59.81c-12.74,-12.77 -20.05,-19.28 -32.48,-33.03l-198.7 -150.69c-1.43,-0.78 -3.28,-1.79 -4.72,-2.56 -1.43,-0.78 -3.26,-1.82 -4.69,-2.59 -11.2,-6.03 -12.88,-6.95 -23.86,-12.54 -1.47,-0.75 -3.32,-1.73 -4.81,-2.47l-92.08 -38.93c-1.64,-0.65 -3.53,-1.47 -5.15,-2.13l-25.8 -10.6c-62.82,-25.74 -133.78,-26.73 -184.08,-41.58l-62.5 -10.3c-53.48,-0.29 -70.78,-14.51 -123.79,-14.51l-152.87 0c-39.43,0 -50.37,10.4 -80.91,13.72 -41.25,4.48 -49.75,-3.31 -86.62,8.01 -26.71,8.2 -52.04,8.44 -80.2,14.43 -127.19,27.04 -245.06,74.86 -359.39,135.61l-60.15 34.48c-2.16,1.38 -9.72,6.68 -13.01,8.83l-104.53 70.16c-43.31,28.1 -79.85,65.58 -117.13,101.25l-7.27 7.28c-1.46,1.52 -5.46,6.11 -6.88,7.68l-96.17 107.65c-1.04,1.07 -2.51,2.65 -3.55,3.73l-17.89 18.49z"/>
    <path class="fil6" d="M31652.06 9505.72l0 -451.26c0,-27.75 9.92,-0.83 14.46,-43.77l7.07 -116.67c2.16,-44.05 6.31,-42 12.3,-67.76l3.73 -39.95c3.61,-25.69 7.87,-21.22 13.65,-51.85 3.35,-17.73 3.67,-32.65 7.4,-50.83 0.43,-2.1 0.76,-3.99 1.26,-6.02l13.97 -44.25c21.94,-85.8 49.37,-168.57 87.81,-247.02l54.88 -105.25c1.38,-2.27 8.51,-11.92 12.16,-16.96 0.89,-1.25 2.17,-2.96 3.07,-4.21l8.94 -12.9c38.31,-56.73 77,-103.42 127.48,-149.11 6.7,-6.07 12.97,-10.37 20.37,-16.04l111.21 -70.78c5.66,-2.58 13.94,-6.2 19.94,-9.18 2,-1 7.59,-3.97 9.56,-4.99l108.11 -37.47c41.73,-8.34 59.43,-16.32 104.89,-18.86 54.32,-3.05 93.6,-14.31 160.4,-14.31 53.28,0 90.8,7.23 132.98,12.62l137.3 15.56c54.13,9.2 103.46,16.39 154.24,35.03 22.08,8.1 70.49,16.76 70.49,45.98l0 1761.39c0,72.11 -5.42,132.3 -30.35,195.29 -4.98,12.59 -5.83,11.63 -11.84,24.55 -25.74,55.26 -57.58,111.85 -99.14,155.62l-167.68 138.05c-1.31,0.85 -3.04,2.08 -4.32,2.96l-121.29 53.41c-16.47,5.66 -9.98,4.96 -26.68,9.71l-23.57 5.55c-1.86,0.53 -3.73,1.15 -5.55,1.72 -1.78,0.56 -3.58,1.37 -5.35,1.93l-68.84 11.23c-79.29,11.01 -180.95,7.97 -258.9,-2.28l-224.28 -88.72 -159.68 -160.6 -63.93 -110.77c-26.48,-51.96 -43.78,-107.53 -62.98,-162.65l-13.43 -66.63c-7.34,-29.97 -7.31,-10.27 -12.11,-38.84l-16 -85.9c-3.46,-34 -7.23,-50.57 -7.14,-87.49 0.05,-20.08 1.24,-28.84 -3.45,-47.49 -7.03,-27.95 -11.16,-7.46 -11.16,-39.8zm-858.99 -291.13c0,117.7 -3.88,239.56 8.39,355.53 2.86,27.06 4.49,45.07 6.06,81.28l36.75 232.56c4.49,33.08 11.29,38.55 18.27,69.08l33.39 126.75c0.6,1.73 1.37,3.57 1.94,5.33 0.59,1.79 1.22,3.69 1.79,5.49l160.19 356.59 76.7 112.56c6.82,9.36 -0.71,0.33 9.36,12.48l174.47 174.92c1.15,0.97 2.79,2.36 3.95,3.32 16.59,13.81 32.99,24.22 51.1,36.26 18.24,12.13 31.98,21.93 53.16,34.19l318.78 132.52 108.58 22.46c42.57,4.11 16,3.27 40.47,10.48 25.78,7.61 51.43,2.18 80.43,6.93 103.56,16.96 216.71,11.76 323.09,11.76 34.58,0 37.93,-10.38 66.4,-13.66l209.23 -45.56c92.67,-31.48 231.34,-108.61 274.18,-140.72 18.01,-13.5 32.13,-24.24 49.23,-38.12 1.18,-0.96 2.86,-2.31 4,-3.27l62.57 -53.9c10.43,-10.01 11.95,-11.29 22.17,-21.51l68.45 -77.13c3.6,-3.84 6.42,-6.84 10.45,-11.4 16.05,-18.09 20.96,-27.66 34.69,-45.37 13.76,-17.75 24.22,-37.49 43.05,-44.31l-0.12 327.66c-0.42,36.79 -7.92,79.94 29.24,79.94l1084.66 0 0 -545.89c0,-42.19 -68.23,-29.27 -109.2,-29.1 -266.62,1 -284.03,-53.37 -283.9,-283.87l0 -2147.16c0,-94.51 -0.95,-189.52 0.13,-283.98 0.94,-82.05 6.46,-69.16 -57.01,-88.57l-178.95 -61.27c-1.75,-0.59 -3.59,-1.35 -5.34,-1.95l-376.79 -96.37c-34.72,-9.28 -83.56,-10.87 -117.25,-21.06 -38.54,-11.65 -83.65,-11.37 -131.21,-14.38 -51.05,-3.21 3.15,-10.99 -131.12,-14.47 -49.68,-1.29 -75.34,-14.8 -130.79,-14.8 -104.04,0 -214.83,-3.73 -315.84,11.74 -34.47,5.28 -82.33,-1.89 -111.28,5.19 -28.73,7.03 -1.19,7.59 -39.08,11.87 -19.13,2.15 -34.1,0.55 -54.88,3.36l-445.63 122.16c-23.5,10 -47.89,23.33 -72.92,36.26 -14.89,7.71 -20.99,9.53 -40.31,17.94l-314.46 224.19c-13.02,11.56 -2.84,1.64 -14.85,14.26l-83.44 91.27c-7.61,9.98 -14.12,17.42 -23.2,27.76 -6.68,7.61 -7.42,8.2 -13.42,15.69l-22.27 28.68c-0.96,1.16 -2.43,2.73 -3.4,3.88l-139.04 217.62c-0.75,1.49 -1.7,3.35 -2.43,4.86l-106.77 249.9c-0.79,2.19 -3.4,8.16 -4.21,10.34 -3.15,8.52 -3.78,10.96 -7.27,21.84l-44.02 152.51c-21.03,68.35 -31.23,137.44 -46.55,208.2 -8.47,39.12 -5.25,58.32 -10.14,99.05 -5.67,47.12 -12.23,43.95 -13.55,102.9 -1.64,72.9 -14.7,139.16 -14.7,218.22z"/>
    <path class="fil6" d="M19728.15 7940.85c117.9,0 151.95,-4.71 266.45,17.45l95.07 28.68c1.63,0.64 3.5,1.51 5.08,2.19l33.53 17.42c56.76,29.14 136.96,81.14 193.62,163.06l25.97 39.55c9.28,14.3 12.73,17.87 22.96,35.27l46.21 99.36c0.66,1.65 1.4,3.56 2.04,5.23 4.33,11.38 4.61,14.6 9.54,26.86l29.38 87.09c4.04,12.89 2.41,11.01 5.68,23.43l28.02 110.28c15.73,44.49 26.42,204.32 41.44,271.54l10.49 361.06c0.19,48.25 -7.64,62.75 -7.7,108.75 -0.1,66.68 2.27,108.7 -11.26,170.71 -4.62,21.16 -2.08,33.14 -3.57,54.66 -5.77,83.28 -32.12,187.3 -56.02,271.52l-153.55 319.58c-1.25,1.74 -4.56,7.01 -5.77,8.79 -9.25,13.68 -3.94,7.74 -15.31,21.08l-49.7 52.21c-1.09,1.03 -2.66,2.51 -3.76,3.52l-52.69 41.94c-1.2,0.92 -2.82,2.33 -4.01,3.26l-8.06 6.5c-1.22,0.91 -2.9,2.25 -4.15,3.12l-27.58 16.09c-1.38,0.82 -3.23,1.87 -4.59,2.69 -1.35,0.83 -3.15,1.95 -4.49,2.79l-138.99 57.54c-1.82,0.58 -3.65,1.26 -5.51,1.77l-42.34 8.63c-83.6,26.66 -235.38,17.63 -320.72,-2.96l-177 -63.21c-1.48,-0.76 -3.38,-1.69 -4.82,-2.46 -41.01,-22.2 -81.92,-55.27 -114.21,-89.61 -6.94,-7.38 -6.23,-6.91 -13.45,-15.67l-29.85 -35.67c-46.81,-55.45 -82.41,-127.79 -110.87,-194.85 -6.45,-15.19 -8.37,-27.07 -14.88,-43.34l-62.19 -236.25c-9.27,-30.83 -6.07,-17.82 -9.57,-55.93 -2.62,-28.47 -5.43,-21.76 -10.91,-47.32 -10.83,-50.62 -2.52,-115.08 -16.77,-165.2 -18.94,-66.67 0.17,-160.59 -11.27,-236.19 -10.46,-69.05 -7.21,-170.25 1.08,-230.69 7.2,-52.52 -7.74,-117.59 7.26,-167.43 17.66,-58.72 19.05,-142.44 34.76,-205.44l30.58 -107.71c10.61,-29.69 61.6,-177.67 111.76,-252.19 1.2,-1.78 4.88,-6.68 6.14,-8.41l63.18 -82.39c1,-1.11 2.55,-2.61 3.59,-3.7 37.72,-39.86 0.65,-10.64 46.55,-48.07l232.7 -123.98c43.8,-13.93 100.29,-24.95 142.47,-24.95zm-1528.71 1113.61c0,102.43 -10.48,262.67 4.21,359.72 5.57,36.77 -2.04,75.69 3.42,113.04l11.15 32.52c9.21,32.84 3.7,98.45 13.96,138.89 4.13,16.29 6.08,13.63 8.77,27.63l12.3 67.76c3.71,11.68 5.57,22.74 7.66,36.02 4.51,28.78 5.96,36.32 13.11,59.67l35.63 124.5c0.62,1.69 1.44,3.53 2.05,5.23l143.79 322.05c8.84,15.98 17.9,33.25 29.23,50.84l158.37 198.29c4.44,4.24 3.38,2.89 11.18,10.66l49.67 52.24c1.52,1.47 6.07,5.49 7.63,6.93l168.78 129.66c19.32,12.83 29.38,18.73 49.66,30.42 1.89,1.09 7.35,4.21 9.28,5.28 6.04,3.34 7.55,3.95 14.31,7.53l188.96 87.65c21.69,8.07 37.91,12.86 59.25,20.82l88.68 27.78c15.47,3.75 20.76,3.25 37.87,5.81 30.43,4.56 28.33,11.69 64.94,15.13 91.56,8.63 101.38,22.41 218.4,21.83 57.82,-0.29 94.42,10.47 145.51,7.43l153.18 -7.16c111.47,-0.15 313.98,-47.55 420.9,-88.66l298.67 -145.36c9.95,-6.18 11.85,-7.73 22.04,-14.36l8.9 -5.68c1.31,-0.85 3.09,-2.02 4.4,-2.87l194.97 -154.42c1.08,-1.03 2.66,-2.5 3.74,-3.54l65.94 -65.08c1.03,-1.08 2.57,-2.6 3.61,-3.68l40.68 -46.66c0.96,-1.17 2.32,-2.84 3.28,-4l182.04 -269.25c0.78,-1.41 1.82,-3.26 2.62,-4.65 43.18,-75.29 82.47,-158.63 106.33,-243.06l61.35 -222.52c5.47,-31.13 3.22,-12.91 8.06,-28.34 16.15,-51.6 24.5,-108.19 27.89,-168.63 3.65,-64.83 10.47,-8.92 15.02,-65.04l8.08 -232.11c6.11,-34.02 13.54,-11.02 14,-66.07 0.55,-66.32 10.9,-191.07 -9.96,-252.98 -12.93,-38.37 -4.27,-86.07 -4.77,-126.24l-7.8 -108.64c-4.66,-42.03 -1.63,-4.68 -10.17,-33.51l-22.37 -137.76c-3.94,-16.42 -1.91,-16.8 -4.17,-32.22l-31.49 -121.36c-4.29,-14.09 -4.08,-21.2 -8.02,-35.65l-41.48 -118.65c-5.53,-13.9 -5.47,-11.05 -10.97,-25.42 -6.17,-16.12 -5.06,-16 -11.79,-31.89 -8.45,-19.94 -18.46,-39.46 -25.16,-54.91l-35.24 -73.95c-0.74,-1.48 -1.7,-3.34 -2.46,-4.82l-102.06 -174.54c-38.11,-51.13 -80.96,-106.62 -132.66,-143.95l-374.97 -243.76c-1.48,-0.73 -3.29,-1.78 -4.74,-2.54l-90.84 -40.2c-18.47,-7.71 -34.55,-10.03 -55.29,-17.5l-154.04 -42.5c-34.23,-10.77 -77.27,-6.39 -109.68,-14.07l-67.84 -12.23c-60,0.21 -85.66,-14.46 -145.68,-14.46 -83.26,0 -170.87,-2.8 -251.43,10.63 -31.34,5.24 -67.26,0.36 -94.54,7.37l-117.28 21.03c-1.91,0.5 -3.73,1.15 -5.58,1.7l-27.49 8.91c-8.3,1.73 -16.67,1.96 -25.75,3.37 -9.83,1.53 -27.51,6.19 -40.45,10.52 -16.66,5.56 -21.07,5.97 -39.2,11.75 -19.02,6.06 1.61,-0.61 -15.97,5.88l-75.99 25.91c-6.12,2.19 -16.95,5.17 -22.26,6.85 -64.19,20.34 -122.72,50.81 -180.37,81.69l-144.67 80.97c-1.35,0.83 -3.19,1.92 -4.52,2.77l-29.91 21.04c-67.34,44.35 -129.83,90.85 -186.92,147.93l-74.18 78.68c-42.98,45.37 -80.62,96.35 -112.48,149.56l-62.63 104.79c-1.06,1.93 -4.17,7.4 -5.22,9.34l-57.55 124.42c-5.27,11.72 -11.94,24.7 -16.28,34.67 -7.12,16.39 -7.02,21.75 -12.93,38.02l-57.39 175.52c-6.92,29.17 -0.85,3.05 -7.06,22.06l-28.15 124.7c-4.74,36.61 -3.38,18.78 -10.82,47.4 -10.42,40.06 -4.16,96.82 -17.17,135.68 -7.06,21.1 -0.19,-7.8 -5.99,15.85 -12.21,49.9 -9.65,171.41 -9.65,230.55z"/>
    <path class="fil6" d="M16241.24 6980.09l0 443.99 -596.93 0 0 567.72c0,16.78 5.06,21.84 21.84,21.84l575.09 0c0,238.48 12.92,2136.09 -9.99,2217.22 -9.5,33.65 -28.89,59.96 -56.26,82.04 -7.51,6.06 2.41,-0.37 -12.63,9.21 -0.46,0.29 -16.08,8.88 -18.97,10.14 -15.68,6.84 -18.41,5.99 -33.63,10.06 -56.46,15.07 -65.75,12.28 -125.3,20.29 -30.88,4.15 -59.94,-0.86 -89.8,4.82 -38.19,7.27 -34.94,11.72 -82.91,11.72l0 538.61 1827.16 0c28.09,0 22.68,-23.19 22.47,-50.32l-0.64 -510.12c-35.22,-9.41 -6.15,-13.59 -57.73,-15.06 -73.32,-2.08 -160.4,1.78 -227.23,-5.71 -47.41,-5.32 -103.39,2.41 -151.43,-1.44 -50.15,-4.01 -86.07,-14.19 -145.97,-14.19l0 -2307.28c150.89,0 944.25,11.86 1026.41,-7.28l0 -582.27 -1026.41 0c0,-144.11 -13.82,-376.99 12.7,-511.36 4.62,-23.44 5.22,-27.73 8.51,-49.72l24.99 -84.18c20.29,-52.11 53.44,-102.64 92.66,-140.27 1.07,-1.03 2.58,-2.58 3.66,-3.61 1.09,-1.03 2.62,-2.54 3.72,-3.56 59.05,-54.32 136.03,-67.97 201.99,-89.18 15.53,-4.99 3.46,-4.71 30.08,-6.32l255.29 -0.05 250.52 62.5c2.18,0.8 8.14,3.42 10.3,4.25l150.38 60.71c28.49,14.3 53.13,19.04 61.69,40.22l29.11 0 39.32 -113.54c24.96,-73.15 156.2,-407.66 157.23,-454.17l-237.09 -105.04c-1.74,-0.58 -3.6,-1.34 -5.32,-1.95 -1.69,-0.61 -3.53,-1.45 -5.2,-2.08l-86.35 -30.12c-13.66,-3.8 -9.36,-2.75 -16.49,-5.35 -12.37,-4.48 -10.01,-5.66 -32.43,-11.26l-322.94 -62.87c-29.33,-2.33 -33.86,-10.23 -59.31,-13.48 -23.81,-3.03 -54.86,0.17 -79.54,-0.53 -35.94,-1.03 -36.34,-6.68 -72.32,-7.76 -94.84,-2.83 -187.37,5.19 -277.25,7.13 -43.47,0.95 -32.58,7.46 -59.9,12.9 -18.96,3.77 -39.79,2 -60.64,4.88l-118.56 27.02c-14.95,4.59 -36.56,10.96 -54.88,17.91 -63.51,24.11 -68.35,17.69 -140.41,56.14l-9.32 5.23c-1.42,0.78 -3.25,1.83 -4.67,2.6 -1.41,0.78 -3.24,1.84 -4.67,2.61l-86.28 52.03c-1.21,0.93 -2.91,2.24 -4.15,3.12l-109.54 87c-12.67,12.41 -20.15,20.08 -32.75,32.75l-24.63 26.33c-1.01,1.1 -2.47,2.68 -3.49,3.78l-59.44 78.86c-0.82,1.36 -1.9,3.21 -2.75,4.53l-28.75 44.04c-1.03,1.96 -3.91,7.67 -4.94,9.62l-65.51 138.31c-14.28,36.63 -23.94,64.72 -35.19,103.1 -5.6,19.07 -8.66,35.84 -14.25,58.54l-50.35 306.31z"/>
    <path class="fil6" d="M21526.2 3013.32c0,-42.41 8.18,-90.83 12.57,-125.73l12.17 -89.73c13.7,-45.29 17.28,-96.12 32.47,-142.23l36.59 -108.98c9.09,-20 9.37,-25.44 17.46,-48.05 4.86,-13.58 5.02,-12.08 10.81,-25.58l13.57 -30.11c0.76,-1.44 1.83,-3.25 2.61,-4.68l45.6 -85.41c3.82,-7.14 5.73,-11.94 10.16,-18.95l66.53 -93.61c38.14,-52.46 85.17,-92.07 135.79,-133.54l66.3 -42.89c40.71,-25.76 87.04,-41.57 132.02,-57.23 7.8,-2.72 3.97,-2.02 16.76,-5.08l74.92 -12.43c56.27,-18.5 127.34,-9.41 187.57,-9.67 10.02,-0.04 25.57,-0.29 35.04,1.36 33.19,5.78 -1.8,-0.07 27.3,9.1 51.25,16.15 78.53,17.82 128.24,46.46l13.09 8.76c1.26,0.87 2.93,2.2 4.2,3.08l104.63 128.29c0.73,1.49 1.71,3.34 2.44,4.83l11.54 24.85c13.92,34.32 10.5,73.39 22.63,108.38 11.69,33.69 11.31,79.87 7.1,116.36l-9.99 33.69c-0.57,1.8 -1.27,3.64 -1.8,5.49l-17.11 70.24c-0.71,1.51 -1.73,3.33 -2.47,4.81 -39.81,79.25 -80.8,124.06 -143.7,183.85 -6.26,5.95 0.04,1.09 -11.47,10.37 -9.47,7.63 -12.5,8.51 -21.3,15.1l-204.8 122.76c-77.16,36.63 -210.7,81.36 -294.46,91.34l-122.14 16.18c-108.19,7.76 -150.97,20.93 -262.81,21.08 -49,0.06 -81.09,7.53 -138.06,7.53zm-851.71 181.95c0,106.16 -8.74,221.53 9.51,325.31 9.7,55.22 2.99,122.56 13.4,183.11l15.47 86.43c0.46,4.02 3.59,27.93 5.47,38.2 6.22,33.87 5.63,15.21 11.64,39.3 10.31,41.31 12.2,81.78 27.59,125.27l4.29 10.27c0.62,1.67 1.51,3.47 2.11,5.17 27.13,77.79 46.49,161.15 84.62,235.64 0.75,1.45 1.81,3.26 2.59,4.69 0.76,1.43 1.9,3.18 2.67,4.6 0.78,1.41 1.9,3.19 2.67,4.61 0.77,1.42 1.86,3.21 2.62,4.66 0.76,1.44 1.8,3.26 2.54,4.74l169.52 281.76c0.94,1.21 2.26,2.89 3.16,4.11l113.08 127.14c1.05,1.06 2.49,2.68 3.52,3.76 1.47,1.52 5.56,6.01 7.04,7.52l148.15 121.17c8.11,5.02 6.39,3.29 14.03,7.82l188.64 102.53c53.87,27.68 114.18,45.16 170.27,62.66l157.75 38.81c11.25,1.83 20.6,2.91 39.2,4.47l42.17 8.8c85.21,27.58 420.58,28.03 510.65,28.03 62.46,0 192.12,-10.71 253.17,-23.46l133.63 -26.52c18.48,-5.91 -6.09,-0.1 22.4,-6.72 7.67,-1.78 10.57,-1.44 18.41,-3.42l501.69 -204.41c1.38,-0.81 3.15,-1.93 4.56,-2.71 52.31,-29.06 107.77,-57.07 151.21,-96.29 23.03,-20.78 4.48,-13.47 28.71,-22.24l0 -21.84c-28.15,-11.36 -4.42,4.89 -18.49,-25.19 -7.87,-16.85 -10.36,-22.17 -16.7,-34.25l-98.28 -207.42c-8.38,-19.12 -5.54,-16.63 -15.8,-35.16 -2.28,-4.11 -6.79,-11.05 -8.27,-13.57l-39.52 -91.5c-5.38,-11.58 -9.2,-15.93 -17.86,-33.1l-47.15 -105.7c-29.06,2.42 -27.07,5.44 -46.04,19.47l-25.69 17.99c-1.29,0.86 -3.05,2.07 -4.34,2.93l-131.85 79.26c-15.44,8.18 -27.13,14.61 -43.33,22.18 -20.37,9.51 -25.57,12.73 -43.73,21.79l-96.67 41.63c-36.58,11.89 -58.55,27.1 -95.32,35.7l-156.62 39.92c-22.59,4.66 -38.42,1.16 -60.68,4.84 -22.67,3.75 -28.06,12.71 -60.09,12.71l-225.66 0 -195.48 -37.46c-47.68,-11.11 -95.23,-38.33 -141.04,-55.5 -35.6,-13.35 -60.18,-31.12 -91.4,-54.19l-143.16 -148.01c-43.93,-58.53 -73.68,-122.62 -101.56,-189.59l-35.79 -117.08c-17.89,-54.79 -26.82,-143.28 -26.82,-206.08l406.97 -15.24c34.02,-7.34 47.11,-4.78 88.05,-6.59 25.32,-1.12 61.83,-8.7 81.92,-12.71 74.15,-14.8 155.23,-22.37 227.1,-42.24l515.4 -161.58c21.22,-9.31 36.63,-21.21 61.61,-33.02 0.1,-0.05 13.3,-6.41 14.69,-7.14l192.82 -127.46c1.21,-0.92 2.92,-2.24 4.11,-3.17 66.07,-52.37 130.76,-123.77 176.71,-194.52l90.81 -149.39c2.17,-4.35 5.91,-10.93 7.61,-14.22 8.19,-15.86 8.79,-18.52 15.52,-35.43 73.74,-185.16 89.44,-298.32 89.44,-514.68 0,-40.21 -3.26,-68.99 -10.36,-106.1 -6.26,-32.7 -12.26,-72.13 -21.17,-102.56 -5.01,-17.08 -7.69,-30.78 -12.07,-46.15l-60.28 -150.81c-0.73,-1.49 -1.75,-3.32 -2.51,-4.77 -0.76,-1.44 -1.82,-3.25 -2.61,-4.66 -29.73,-53.24 -62.28,-105.89 -105.01,-149.77l-241.41 -188.05 -140.54 -63.27c-1.64,-0.64 -3.53,-1.47 -5.15,-2.12l-156.1 -47.73c-165.93,-42.21 -502.57,-55.63 -679.99,-17.84 -52.55,11.2 -107.16,10.76 -159.09,30.18 -42.85,16.03 -89.21,19.82 -131.08,36.34l-197.13 79.47c-98.08,50.89 -193.49,108.81 -276.71,181.88l-76.99 68.59c-32.17,25.15 -56.38,61.07 -84.63,90.06 -51.25,52.58 -94.66,115.11 -136.65,176.34l-129.79 219.61c-7.1,14.59 -9.85,24.9 -17.87,40.35l-5.22 9.34c-0.76,1.44 -1.82,3.24 -2.56,4.71l-126.98 367.98c-0.47,1.98 -0.97,3.85 -1.5,5.77l-12.57 52.95c-5.76,37.2 -5.66,13.52 -12.66,45.56 -6.29,28.74 -4.6,63.66 -11.08,90.82 -6.92,28.99 -7.62,1.52 -11.78,39.17 -5.67,51.36 -1.84,100.95 -10.34,157.06 -5.95,39.23 -11.73,53.26 -11.73,97.44z"/>
    <path class="fil6" d="M15294.9 2460.15c0,120.17 8.35,231.99 36.49,349.28l40.6 126.81c0.66,1.63 1.44,3.55 2.14,5.14 22.29,50.92 50.8,104.67 83.95,148.97l22.14 28.81c8.73,11.23 13.13,18.49 21.87,29.08l169.84 135.88c12.09,7.9 20.16,13.76 31.16,19.8l398.96 183.38c26.44,7.26 3.69,0.6 21.79,7.33l201.86 60.2c1.77,0.58 3.63,1.28 5.44,1.84l207.66 54.4c1.73,0.58 3.54,1.41 5.3,1.99l197.31 57.46c1.58,0.68 3.43,1.58 5.02,2.25l111.08 56.34c38.37,26.68 80.58,57.11 111.02,92.79 8.32,9.76 14.14,18.65 21.65,29.3l49.38 103.48c24.6,99.22 11.54,228.35 -44.31,314.73 -78.45,121.32 -221.98,170.11 -358.9,187.04 -135.15,16.7 -272.8,17.94 -407.86,-3.8 -23.06,-3.72 -49.75,-14 -82.45,-19.46 -10.5,-1.76 -7.56,-0.31 -18.24,-3.6 -1.78,-0.55 -3.63,-1.32 -5.32,-1.95l-50.85 -21.95c-47.84,-18.35 -101.76,-51.43 -129.96,-95.69 -29.43,-46.17 -42.55,-77.79 -42.55,-139.41l0 -334.81 -109.19 0c-33.22,0 -175.96,22.71 -262.14,21.76 -62.02,-0.68 -72.18,13.67 -123.39,14.92 -24.04,0.58 -49.25,-0.84 -73.37,-0.58 -35.92,0.39 -37.83,5.29 -65.23,7.57l0 975.32c28.75,7.67 -0.08,-0.27 25.67,10.73l44.89 20.63c1.53,0.71 3.4,1.63 4.94,2.33l73.16 28.75c1.66,0.64 3.53,1.46 5.17,2.11l185.66 54.55c22.55,6.21 -2.32,-0.17 16.11,5.73l29.51 6.88c17.66,2.76 23.11,3.18 38.64,5.04l42.14 8.82c1.72,0.58 3.44,1.54 5.19,2.09l23.86 5.26c46.4,6.73 87.97,19.6 138.49,21.66 74.61,3.03 72.85,12.74 145.69,14.45 105.26,2.49 200.22,22.05 305.53,22.05 140.17,0 287.38,7.69 425.36,-11.41l347.43 -74.78c14.25,-5.59 -1.21,-0.73 20.93,-8.18 11.47,-3.86 15.7,-4.28 27.89,-8.5 8.87,-3.08 14.6,-5.23 25.76,-10.64l23.79 -12.61c54,-24.93 109.26,-48.31 159.34,-80.88l96.48 -63.66c1.23,-0.91 2.99,-2.15 4.21,-3.08l35.74 -29.77c5.99,-3.9 5.85,-2.66 14.04,-7.8 48.22,-30.25 120.71,-118.89 155.26,-165.01l6.45 -8.12c37.78,-46.43 66.12,-95.19 91.6,-148.6l4.93 -9.63c0.72,-1.52 1.67,-3.37 2.39,-4.89 4.26,-9.21 5.68,-13.43 10.87,-25.52l42.01 -118.12c26.81,-76.8 20.93,-121.81 28.73,-167.81 3.83,-22.61 12.78,-27.92 12.78,-59.99l0 -181.97 -37.88 -209.59c-0.51,-1.89 -1.11,-3.77 -1.68,-5.61 -0.55,-1.77 -1.34,-3.6 -1.93,-5.33 -24.54,-70.81 -50.12,-139.34 -88.61,-202.55 -0.83,-1.35 -1.96,-3.15 -2.79,-4.48l-11.67 -17.45c-1.19,-1.81 -4.59,-6.97 -5.77,-8.8 -43.86,-68.03 -97.76,-130.6 -159.37,-182.74l-105.63 -76.34c-1.3,-0.86 -3.09,-2.02 -4.39,-2.88 -1.3,-0.86 -3.09,-2.04 -4.4,-2.89 -1.8,-1.19 -7,-4.57 -8.8,-5.75 -17.04,-11.09 -13.66,-9.42 -31.6,-19.36 -11.41,-6.31 -17.87,-9.78 -33.6,-17.35l-224.49 -103.08c-12.46,-5.32 2.92,-0.5 -19.65,-9.47l-582.26 -174.79c-15.38,-4.32 -23.02,-5.18 -39.21,-11.75l-271.09 -129.26c-22.32,-16.03 -36.81,-27.04 -56.44,-45.46l-79.19 -124.63c-28.04,-90.13 -35.68,-212.25 0.67,-300.8l69.31 -98.1c1.06,-1.07 2.57,-2.6 3.63,-3.66 1.07,-1.05 2.57,-2.59 3.64,-3.64l81.9 -63.67c36.77,-22.71 66.92,-32.12 106.45,-46.42l27.05 -9.34c98.95,-23.82 190.52,-21.77 291.24,-21.77l342.33 79.88c28.57,14.82 37.18,22.06 57.91,44l38.76 55.87c17.66,32.46 16.81,55.92 20.81,95.65 9.44,93.96 6.1,209.48 6.1,306.88l253.95 -8.1c33.99,-5.07 21.89,-13.8 73.23,-14.12 109.86,-0.69 73.05,-3.87 161.43,-13.28 41.93,-4.47 144.7,9.66 144.7,-30.02l0 -786.07c0,-28.73 -10.95,-37.58 -32.8,-47.27l-306.84 -122.63c-49.58,-18.17 -205.32,-67.64 -252.83,-74.74l-67.1 -12.97c-82.61,-26.04 -285,-48.08 -381.4,-48.08 -133.05,0 -284.16,-8.27 -410.8,18.7 -24.82,5.29 -40.18,1.59 -65.11,7.68l-174.21 44.17c-1.68,0.62 -3.5,1.49 -5.17,2.12 -1.69,0.62 -3.53,1.44 -5.23,2.05l-288.32 126.59c-1.33,0.84 -3.1,2.02 -4.42,2.86l-40.81 24.7c-1.31,0.84 -3.03,2.1 -4.33,2.95l-85.09 60.48c-3.88,3.3 -15.63,12.71 -20.28,16.11l-43.52 36.55c-1.09,1.03 -2.67,2.49 -3.77,3.52l-29.1 29.13c-1.01,1.1 -2.47,2.69 -3.49,3.79l-50.61 51.29c-13.18,15.7 -17.24,25.97 -30.67,42.12 -13.4,16.11 -19.97,25.21 -30.93,41.86l-58.29 101.85c-0.69,1.61 -1.37,3.6 -2.05,5.23l-4.15 10.4c-2.67,6.32 -6.77,15.28 -11.26,25.13 -10.36,22.78 -11.8,27.38 -21,51.79l-34.87 110.7c-14.91,58.59 -35.71,191.68 -35.71,255.43z"/>
    <path class="fil6" d="M36434.73 9986.1c0,43.82 -4.75,104.26 -20.64,146.77l-84.6 133.75c-36.97,40.89 -85.92,66.65 -137.49,88.17l-142.98 38.99c-152.27,15.27 -349.99,18.43 -498.75,-18.27l-172.17 -75.34c-8.27,-6.41 -20.12,-16.67 -27.36,-23.59 -44.99,-42.97 -73.45,-109.13 -73.45,-181.31l0 -327.53c-60.35,0 -86.17,13.39 -138.06,14.8 -24.69,0.67 -57.13,-2.57 -80.6,-0.52 -49.18,4.29 6.88,12.8 -138.32,14.54l-153.05 7.11c-58.98,0.38 -20.19,15.02 -116,15.02l0 975.32c16.09,3.74 11.75,2.15 27.19,9.19l283.67 102.13c7.33,2.76 25.45,8.11 34.15,9.53 66.74,10.87 125.44,35.22 193.97,38.97 48.83,2.67 37.38,6.71 67.34,12.74 45.94,9.24 107.17,2.79 148.8,11.36 27.42,5.63 16.16,11.92 59.78,13.01 25.83,0.64 54.43,-2.09 80.11,-0.03 50.14,4.01 86.05,14.18 145.96,14.18l363.98 0c55.46,0 88.94,-12.93 138.63,-14.24 7.45,-0.19 13.1,-0.08 20.47,-1.37l253.35 -59.66c49.51,-15.69 102.54,-31.5 148.67,-55.14l289.7 -176.17c47.87,-35.86 88.25,-81.96 129.06,-125.71l59.79 -78.51c19.34,-23.83 27.49,-38.9 43.66,-65.52 14.42,-23.73 21.87,-40.66 35.19,-66.72l73.14 -239.85c2.62,-19.82 2.47,-26.51 6.95,-44.01 11.61,-45.36 5.51,-92.01 12.88,-139.98 10.84,-70.6 -6.61,-254.11 -34.18,-335.9 -0.58,-1.75 -1.4,-3.54 -1.95,-5.33 -34.83,-111.98 -76.22,-204.63 -145.72,-298.29 -103.44,-139.4 -208.94,-197.74 -355.21,-278.07 -87.06,-47.82 -177.38,-82.94 -271.02,-114.78l-252.26 -75.3c-55.42,-18.12 -116.38,-25.78 -172.08,-46.31 -81.27,-29.94 -172.46,-54.98 -250.66,-91.47 -44.21,-20.61 33.03,15.83 -9.67,-4.88l-102.45 -50.42c-1.38,-0.8 -3.19,-1.91 -4.56,-2.72l-8.99 -5.57c-8.41,-5.06 -12.82,-7.23 -18.5,-10.63l-13.37 -8.46c-31.65,-24.48 -70.55,-61.42 -93,-96.26 -53.4,-82.88 -82.28,-238.35 -49.08,-328.9 0.63,-1.71 1.32,-3.61 1.93,-5.35 0.62,-1.77 1.16,-3.74 1.75,-5.52 21.27,-63.6 55.48,-112.91 107.1,-154.94 1.18,-0.95 2.91,-2.24 4.07,-3.21l87.67 -57.91c17,-6.73 20.26,-6.35 36.68,-14.27 49.11,-23.69 111.25,-36.08 163.96,-39.87 72.86,-5.24 235.02,-9.83 302.2,4.75l228.42 62.74c92.98,44.33 125.77,128.47 125.31,231.35 -0.39,90.75 -11.11,205.85 7.11,284.03l171.4 -17.87c55.55,-10.62 430.4,-24.32 443.25,-29.91 27.5,-11.95 19.26,-38.9 18.8,-75.83 -3.2,-254.01 -0.13,-510.13 -0.13,-764.37 -54.53,-19.73 -113.01,-54.3 -170.06,-77.42 -16.75,-6.79 -16.79,-7.23 -30.64,-13.03 -5.97,-2.5 -9.18,-3.56 -15.62,-6.23l-106.4 -39.18c-25.2,-8.06 -12.65,-5.69 -30.74,-12.94 -19.91,-7.97 -45.32,-15.42 -66.26,-21.09 -10.85,-2.94 -23.76,-5.28 -34.67,-9.01 -19.26,-6.6 -3.48,-4.36 -31.69,-11.99l-219.98 -49.35c-38.18,-12.85 -86.1,-8.11 -129.96,-15.63 -29.02,-4.98 -42.41,-14 -73.67,-13.68 -69.51,0.71 -96.59,-14.31 -160.4,-14.31l-189.27 0c-35.22,0 -49.46,9.04 -74.5,12.85 -28.25,4.32 -58.73,-1.25 -85.51,1.85 -35.09,4.08 -37.02,12.19 -72.13,15.23l-310.15 82.93c-15.33,5.07 -21.54,8.46 -35.91,15.05l-277.25 159.51 -124.05 108.87c-1,1.12 -2.38,2.77 -3.37,3.9 -5.37,6.21 -7.32,8.76 -13.19,15.93l-99.89 133.04c-26.52,39.79 -53.27,89.12 -68.48,135.32l-34.22 96.8c-18.34,57.11 -17.69,116.73 -29.43,152.53 -4.95,15.12 -6.1,-7.98 -9.73,33.94 -2.33,27.01 2.39,58.22 -0.79,86.56 -8.02,71.54 -0.56,102.65 1.3,168.23 3.36,118.57 6.88,65.97 15.42,159.27 5.2,56.86 29.03,121.32 52.07,173.57l36.66 79.8c54.84,98.37 135.28,189.02 229.4,251.01l397.27 199.62 339.67 104.37c27.14,7.27 13.21,4.38 32.69,10.99 5.84,1.99 30.34,7.77 35.16,8.52l59.78 13.01c1.76,0.6 3.64,1.28 5.43,1.86 1.81,0.58 3.75,1.12 5.58,1.69 17.69,5.43 17.06,4.75 33.47,10.21l70.5 16.86c75.08,23.04 156.88,43.63 225.67,87.33 31.2,19.81 74.88,56.02 100.78,81.19 8.41,8.17 15.07,13.1 22.67,21.01 55.7,58.02 84.64,146.62 84.64,228.33z"/>
    <path class="fil6" d="M22902.04 7911.73l0 -487.65 -1186.57 0 0 575 366.41 26.68c1.66,0.61 3.48,1.51 5.07,2.2 1.56,0.67 3.35,1.7 4.85,2.43 1.5,0.71 3.25,1.83 4.71,2.57 10.23,5.17 14.04,6.59 23.86,12.54l23.47 20.2c21.93,26.98 37.52,84.23 37.52,122.61l0 1972.47c0,29.4 -8.21,40.86 -13.8,66.27 -17.52,79.62 -77.63,105.29 -150.32,126.29 -52.4,15.13 -134.84,4.97 -188.61,15.2 -32.9,6.26 -39.49,10.59 -76.77,10.59l0 538.61 1834.46 0c19.65,0 20.07,-3.47 36.39,-7.29l0 -553.16 -152.87 0c-9.63,0 -23.14,-14.97 -101.9,-14.58 -38.88,0.19 -77.78,0.03 -116.66,0.19 -48.26,0.2 -62.76,-7.63 -108.77,-7.7 -41.3,-0.05 -82.68,0.25 -124.01,0.25l0 -1644.93c0,-79.13 8.57,-130.25 28.47,-204.46 0.51,-1.9 1.09,-3.79 1.66,-5.62l8.21 -20.9c2.01,-5.25 3.41,-9.66 5.82,-16.02l71.22 -139.86c7.11,-10.69 9.89,-15.2 17.66,-26.02 45.27,-62.96 103.59,-117.86 170.01,-157.54 50.89,-30.4 92.31,-45.98 152.9,-65.48l27.02 -9.37c75.79,-17.81 199.13,-19.41 273.34,5.53l10.81 3.76c1.81,0.59 3.78,1.11 5.58,1.7 93.78,30.29 100.86,111.63 100.86,219.42l0 283.86c140.31,0 60.13,-15.84 160.04,-14.67 40.71,0.47 66.84,-1.09 96.73,-5.19 32.7,-4.48 67.11,-1.26 100.39,-1.52 60.68,-0.48 33.02,-15 93.72,-15.47 35.08,-0.28 185.1,-0.66 197.8,-13.3 15.96,-15.88 6.48,-967.43 6.48,-1041.62l-36.77 -14.18c-70.07,-34.98 -151.81,-68.47 -228.41,-84.6 -16.82,-3.54 -20.92,-3.52 -35.28,-8.4 -1.72,-0.58 -3.48,-1.5 -5.19,-2.09l-145.5 -29.21c-16.1,-1.28 -33.17,1.16 -50.29,-0.66 -30.52,-3.26 -41.46,-13.71 -80.92,-13.71l-145.59 0c-39.49,0 -50.46,10.53 -80.96,13.67 -23.8,2.45 -44.84,-1.23 -66.89,5.91l-15.6 6.23c-27.37,7.77 -50.56,4.8 -79.86,14.77 -19.91,6.77 -5.13,3.65 -32.76,10.92 -16.88,4.45 -21.79,5.28 -39.21,11.74l-173.75 81.03c-14.52,8.07 -6.79,3.73 -18.37,10.74 -3.58,2.18 -8.03,5.05 -13.54,8.31l-42.76 30.03c-10.43,7.93 -15.97,11.01 -25.3,18.37 -9.63,7.61 -3.17,2.91 -11.89,9.95l-196.71 189.08c-0.93,1.19 -2.25,2.89 -3.2,4.08l-55.77 75.26c-0.8,1.25 -8,11.21 -9.11,12.72l-34.86 59.77c-2.63,5.24 -4.47,9.87 -6.9,14.94 -0.96,2 -3.87,8.12 -4.72,9.84l-5.08 9.47z"/>
    <path class="fil6" d="M9755.16 6900.03c64.47,0 140.79,1 201.84,9.27 46.89,6.36 144.78,12.56 198.54,12.56l0 3180.7c0,33.84 -12.54,-11.86 -14.68,65.39 -1.46,52.99 -16.1,80.46 -57.17,110.24 -8.05,5.84 -2.86,2.12 -13.26,8.57 -1.34,0.83 -3.13,1.98 -4.5,2.79 -53.48,31.66 -128.58,30.82 -182.77,42.89 -25.87,5.76 -134.64,10.32 -164.39,10.32l0 553.16c0,16.77 5.06,21.84 21.84,21.84l1630.62 0c19.67,0 20.07,-3.47 36.4,-7.29l0 -589.55c-42.64,0 -26.74,-15.14 -86.93,-14.98l-306.16 -6.85 0 -3187.98c0,-206.78 126.66,-211.2 275.47,-226.79 27.83,-2.92 43.48,-5.23 81.47,-5.88 38.98,-0.67 42.37,-7.76 72.56,-14.8l0 -560.44 -1688.86 0 0 596.84z"/>
    <path class="fil6" d="M18170.32 1557.62l-58.23 0 -65.52 516.78 487.73 0 0 2125.31c0,44.3 12.18,54.87 14.58,101.88 3.49,68.32 41.42,198.55 65.98,268.85 0.59,1.7 1.44,3.53 2.09,5.19l39.94 91.07c23.21,49.89 35.36,62.31 64.6,102.81 0.91,1.25 2.02,3.11 2.91,4.37 10.93,15.64 10.82,16.42 26.28,31.95 11.11,11.15 18.17,19 29.95,28.28 7.98,6.29 8.66,5.98 17.07,12.05 1.25,0.9 3.05,2.09 4.27,3l225.15 124.26 228.05 70.4c4.95,0.9 20.29,2.68 25.69,3.43 61.01,8.44 97.52,19.23 163.43,18.56 63.53,-0.64 85.88,14.58 109.16,14.58l116.48 0c28.98,0 23.1,-9.55 51.78,-13.74 59.82,-8.73 118.15,0.93 190.31,-13.52l165.09 -31.45c66.17,-15.92 141.46,-39.29 202.35,-66.98l14.54 -7.31c1.42,-0.77 3.18,-1.91 4.59,-2.68l201.21 -111.79c-10.55,-45.28 -35.09,-92.26 -53.21,-136.05l-69.38 -185.36c-0.59,-1.77 -1.21,-3.71 -1.84,-5.45l-86.67 -219.04 -245.23 111.45c-10.98,3.18 -13.74,4.66 -27.71,8.7 -22.55,6.54 -33.33,6.71 -54.84,10.68 -31.03,5.72 -33.16,14.74 -58.05,14.74 -141.64,0 -209.59,8.17 -333.14,-52.67l-70.39 -46.08c-36.84,-33.23 -57.45,-73.34 -79.17,-117.34l-7.13 -14.71c-12.97,-28.71 -13.66,-59.03 -25.09,-91.37 -17.79,-50.34 -16.47,-143.06 -16.47,-201.88l0 -1834.18 851.71 0c0,-51.58 7.54,-96.92 17.67,-142.47 6.57,-29.56 2.67,-45.33 4.01,-76.05 1.63,-37.3 10.83,-38.04 14.3,-73.04 4.46,-44.99 2.49,-105.63 14.98,-145.15 9.35,-29.54 14.57,-113.57 14.57,-152.85l-917.22 0 0 -735.13 -444.05 0c-23.9,0 -26.5,21.16 -33.61,39.18l-66.15 159.49c-0.72,1.52 -1.67,3.37 -2.38,4.9 -4.03,8.78 -4.08,10.22 -8.56,20.56 -52.12,120.33 -123,235.23 -199.34,339.29 -9.35,12.74 -3.6,5.11 -9.72,12.12l-116.54 109.11c-10.89,7.76 -18.91,12.32 -30.91,20.04 -44.61,28.7 -99.35,50.93 -150.59,67.78 -1.8,0.59 -3.76,1.14 -5.55,1.74 -1.77,0.58 -3.67,1.25 -5.43,1.85 -1.75,0.59 -3.6,1.36 -5.34,1.95l-85.41 16.5c-35,7.11 -12.1,13.39 -37.56,13.39z"/>
    <path class="fil6" d="M13249.34 1506.67l0 538.6c0,44.75 87.71,29.13 131.2,28.95 32.68,-0.14 187.88,14.32 215.71,24.51 1.68,0.62 3.58,1.38 5.2,2.07l18.78 10.34c37.06,25.86 51.31,118.08 51.31,152.49l0 1943.36c0,31.26 -14.29,89.74 -29.27,116.3l-5.69 8.87c-5.24,8.08 -9.54,14.44 -15.32,21.06 -6.06,6.95 -1.98,3.11 -10.89,10.95 -12.62,11.1 -2.07,2.24 -12.34,9.5 -80.15,56.72 -117.96,38.44 -165.84,45.26 -23.97,3.41 -10.48,4.21 -33.44,10.23 -9.25,2.43 -146.19,10.73 -156.7,10.73l0 538.6c16.33,3.81 16.73,7.28 36.39,7.28l1586.95 0c19.66,0 20.07,-3.47 36.39,-7.28l0 -567.72 -94.64 0c-73.77,0 -115.48,-14.55 -189.26,-14.55l-109.19 0 0 -2889.56c0,-16.76 -5.06,-21.83 -21.84,-21.83l-1215.69 0c-16.77,0 -21.84,5.07 -21.84,21.83z"/>
    <path class="fil6" d="M37606.74 7984.52c0,32.78 31.6,29.91 65.14,29.49 97.66,-1.21 117.76,7.64 197.18,6.64 39.09,-0.49 86.42,8.11 114.12,38.75l33.61 82.85c13.66,42.25 4.88,1673.45 4.88,1851.13 0,117.92 15.53,168.38 -21.3,255.27 -11.1,26.17 -33.44,51.36 -55.73,68.03 -34.14,25.55 -34.53,18.31 -70.4,31.51 -1.66,0.61 -3.41,1.59 -5.08,2.19 -37.16,13.42 -47.19,3.34 -91.92,10 -33.04,4.91 -64.56,1.14 -96,5.9 -33.9,5.14 -39.36,12.86 -89.06,12.86l0 516.77c0,16.77 5.06,21.84 21.84,21.84l1637.9 0 0.18 -538.79c-4.49,-22.12 4.34,-13.96 -14.74,-21.65 -8.25,-20.45 6.58,-13.82 -35.45,-15.5l-161.14 0.98c-36.32,-1.96 -55.34,-7.84 -101.86,-7.34 -35.59,0.39 -87.38,11.28 -87.38,-21.81l0 -2889.56 -1244.8 0 0 560.44z"/>
    <path class="fil6" d="M13475.01 480.41c0,88.78 8.12,198.62 45.65,274.62l10.38 18.73c4.95,9.21 5.17,10.91 9.88,19.23l110.94 129.27c14.21,11.59 1.34,1.61 17.02,12.1l35.28 22.95c46.27,30.02 88.76,46.57 142.7,61.12 117.58,31.7 259.86,20.87 373.9,-17.99l11.13 -3.44c48.25,-14.82 91.29,-43.09 130.72,-73.09l101.53 -109.55 56.25 -118.44 21.64 -116.67c8.12,-37.99 10.37,-66.8 1.47,-104.52 -5.14,-21.8 -3.9,-29.77 -6.79,-58.72 -1.06,-10.69 -5.92,-35.43 -10.27,-47.95 -31.1,-89.61 -78.28,-165.31 -147.5,-231l-150.44 -97.05c-18.17,-7.93 -30.78,-10.47 -49.05,-16.47 -76.84,-25.25 -157.5,-23.51 -238.55,-23.51 -26.36,0 -24.26,8.1 -45.91,12.33 -22.71,4.44 -28.48,1.01 -50.92,7.32l-131.56 57.71c-40.12,27.45 -107.79,85.11 -147.68,143.47 -0.88,1.28 -2.07,3.06 -2.97,4.32l-28.3 44.49c-0.77,1.44 -1.79,3.28 -2.57,4.72l-7.89 13.94c-28.93,56.9 -48.11,128.24 -48.11,192.09z"/>
    <path class="fil6" d="M37825.13 6463.32c0,34.52 2.86,75.43 8.51,107.94l12.47 38.49c0.53,1.93 0.94,3.86 1.43,5.84 4.37,17.44 5.55,28.45 12.74,45.49l51.19 94.39c25.38,38.86 54.68,68.77 110.09,115.55 1.16,0.97 2.77,2.39 3.93,3.34l191.61 85.01c25.55,5.47 28.1,13.43 52.08,13.43l270.67 -20.51c1.72,-0.58 3.48,-1.5 5.17,-2.11l15.77 -6.07c54.07,-18.72 88.56,-33.11 133.88,-69.93l95.62 -86.37 66.35 -108.34c47.12,-103.88 22.72,-85.63 34.37,-140.31 21.42,-100.5 12.1,-100.56 -5,-204.96 -13.42,-81.81 -74.07,-181.07 -130.04,-241.19l-10.73 -11.11c-1.12,-0.99 -2.79,-2.38 -3.96,-3.31 -56.44,-45.04 -98.08,-74.01 -166.87,-102.46 -169.4,-70.09 -409.92,-48.16 -557.69,74.63l-121.55 140.5c-0.78,1.41 -1.8,3.27 -2.57,4.7l-28.08 59.27c-26.16,61.29 -39.41,143.52 -39.41,208.06z"/>
   </g>
  </g>
 </g>
</svg>
