<svg width="215" height="79" viewBox="0 0 215 79" fill="none" xmlns="http://www.w3.org/2000/svg">
<g clip-path="url(#clip0_34_1236)">
<path d="M41.3262 60.5339L40.2615 69.3621C40.1978 69.8899 39.9439 70.3759 39.5478 70.7285C39.1516 71.0811 38.6406 71.2757 38.1113 71.2757H9.28445C8.82676 71.2756 8.38084 71.1299 8.0107 70.8596C7.64056 70.5892 7.36521 70.208 7.22419 69.7706L6.51758 67.5797H30.0807C30.578 67.5797 31.0602 67.4078 31.4462 67.0929C31.8322 66.778 32.0986 66.3393 32.2005 65.8504L33.4912 59.6597L33.8168 58.0962H39.1773C39.4838 58.0957 39.7869 58.1607 40.0665 58.2868C40.3461 58.413 40.5958 58.5974 40.799 58.8279C41.0022 59.0583 41.1543 59.3296 41.2452 59.6236C41.3361 59.9176 41.3637 60.2276 41.3262 60.5332V60.5339Z" fill="#660066"/>
<path d="M33.4903 59.6597L32.1989 65.8504C32.097 66.3393 31.8306 66.778 31.4446 67.0929C31.0586 67.4078 30.5764 67.5797 30.0791 67.5797H6.51668L0.105084 47.6997C-0.0352862 47.2638 -0.0350213 46.7945 0.105841 46.3587C0.246703 45.9229 0.52097 45.5429 0.889528 45.2729L3.83847 43.1133L8.7624 58.1649C8.90492 58.6 9.18055 58.9788 9.55001 59.2473C9.91947 59.5158 10.3639 59.6604 10.82 59.6604L33.4903 59.6597Z" fill="#700070"/>
<path d="M41.2543 59.6597H10.8194C10.3633 59.6597 9.91889 59.5152 9.54943 59.2466C9.17997 58.9781 8.90434 58.5993 8.76182 58.1642L3.83789 43.1126L6.08158 41.4696L11.0312 56.6C11.1738 57.0352 11.4495 57.4141 11.8191 57.6827C12.1887 57.9512 12.6333 58.0957 13.0895 58.0955H39.1758C39.644 58.0955 40.0997 58.248 40.4744 58.53C40.8491 58.812 41.1228 59.2083 41.2543 59.6597Z" fill="#FFCC00"/>
<path d="M17.5042 58.0969H13.0879C12.6318 58.097 12.1874 57.9524 11.8179 57.6839C11.4485 57.4153 11.1728 57.0365 11.0303 56.6014L6.08203 41.4696L8.50508 39.6954C8.72383 39.5338 8.97121 39.4154 9.23402 39.3467C9.7675 39.207 10.3339 39.277 10.8178 39.5422C11.3018 39.8075 11.6668 40.2481 11.8385 40.7742L17.5042 58.0969Z" fill="#FFAC00"/>
<path d="M17.5045 58.0969H16.9353C16.4793 58.097 16.0348 57.9524 15.6654 57.6839C15.2959 57.4153 15.0203 57.0365 14.8778 56.6014L9.23438 39.3467C9.76785 39.207 10.3343 39.277 10.8182 39.5422C11.3021 39.8075 11.6671 40.2481 11.8388 40.7742L17.5045 58.0969Z" fill="#FF7900"/>
<path d="M3.84103 43.1171L3.83789 43.1093" stroke="black" stroke-miterlimit="10"/>
<path d="M33.4903 59.6597L32.1989 65.8504C32.097 66.3393 31.8306 66.778 31.4446 67.0929C31.0586 67.4078 30.5764 67.5797 30.0791 67.5797H6.51668L0.105084 47.6997C-0.0352862 47.2638 -0.0350213 46.7945 0.105841 46.3587C0.246703 45.9229 0.52097 45.5429 0.889528 45.2729L3.83847 43.1133L8.7624 58.1649C8.90492 58.6 9.18055 58.9788 9.55001 59.2473C9.91947 59.5158 10.3639 59.6604 10.82 59.6604L33.4903 59.6597Z" fill="#700070"/>
<path d="M41.2543 59.6597H10.8194C10.3633 59.6597 9.91889 59.5152 9.54943 59.2466C9.17997 58.9781 8.90434 58.5993 8.76182 58.1642L3.83789 43.1126L6.08158 41.4696L11.0312 56.6C11.1738 57.0352 11.4495 57.4141 11.8191 57.6827C12.1887 57.9512 12.6333 58.0957 13.0895 58.0955H39.1758C39.644 58.0955 40.0997 58.248 40.4744 58.53C40.8491 58.812 41.1228 59.2083 41.2543 59.6597Z" fill="#FFCC00"/>
<path d="M17.5042 58.0969H13.0879C12.6318 58.097 12.1874 57.9524 11.8179 57.6839C11.4485 57.4153 11.1728 57.0365 11.0303 56.6014L6.08203 41.4696L8.50508 39.6954C8.72383 39.5338 8.97121 39.4154 9.23402 39.3467C9.7675 39.207 10.3339 39.277 10.8178 39.5422C11.3018 39.8075 11.6668 40.2481 11.8385 40.7742L17.5042 58.0969Z" fill="#FFAC00"/>
<path d="M17.5045 58.0969H16.9353C16.4793 58.097 16.0348 57.9524 15.6654 57.6839C15.2959 57.4153 15.0203 57.0365 14.8778 56.6014L9.23438 39.3467C9.76785 39.207 10.3343 39.277 10.8182 39.5422C11.3021 39.8075 11.6671 40.2481 11.8388 40.7742L17.5045 58.0969Z" fill="#FF7900"/>
<path d="M3.84103 43.1171L3.83789 43.1093" stroke="black" stroke-miterlimit="10"/>
<path d="M21.2448 50.6928C20.9997 50.8592 20.7233 50.9733 20.4326 51.0279L11.7346 52.6873C11.2177 52.7861 10.6827 52.6926 10.2294 52.4241C9.77614 52.1556 9.4357 51.7306 9.27166 51.2285L0.262396 23.6752C0.119538 23.2382 0.118244 22.7671 0.258699 22.3293C0.399154 21.8916 0.674131 21.5098 1.04413 21.2389L2.87157 19.899L10.291 42.579C10.4537 43.0766 10.7898 43.4986 11.2374 43.7673C11.685 44.036 12.2141 44.1335 12.7275 44.0419L18.7182 42.9713L20.2749 42.6932L22.0827 48.2103C22.2307 48.6593 22.2291 49.1446 22.0779 49.5926C21.9266 50.0405 21.6342 50.4268 21.2448 50.6928Z" fill="#660066"/>
<path d="M11.7253 21.5903L18.7183 42.9713L12.7277 44.0412C12.2142 44.1329 11.6851 44.0353 11.2375 43.7666C10.7899 43.4979 10.4538 43.076 10.2911 42.5784L2.87305 19.899L19.6638 7.60531C20.034 7.33496 20.4799 7.18933 20.9376 7.18933C21.3953 7.18933 21.8412 7.33496 22.2114 7.60531L25.2571 9.82409L12.5077 19.154C12.1376 19.4249 11.8625 19.8066 11.7219 20.2443C11.5813 20.6821 11.5825 21.1533 11.7253 21.5903Z" fill="#700070"/>
<path d="M22.0873 48.2103C22.2351 48.6596 22.2328 49.1452 22.081 49.5932C21.9292 50.0412 21.636 50.4272 21.246 50.6928L18.7201 42.9712L11.7271 21.5903C11.5843 21.1533 11.5831 20.682 11.7237 20.2443C11.8643 19.8066 12.1394 19.4248 12.5095 19.154L25.2576 9.82068L27.5033 11.4569L14.697 20.833C14.327 21.104 14.0521 21.4857 13.9116 21.9235C13.7711 22.3612 13.7724 22.8324 13.9153 23.2693L14.6199 25.431L15.2852 27.4669L20.2768 42.6939L22.0873 48.2103Z" fill="#FFCC00"/>
<path d="M29.9414 16.7367L15.2867 27.467L15.112 26.9347L13.9147 23.2694C13.7719 22.8324 13.7706 22.3612 13.911 21.9235C14.0515 21.4858 14.3265 21.104 14.6965 20.833L27.5021 11.4569L29.9285 13.2243C30.2042 13.4253 30.4288 13.6887 30.5841 13.9932C30.7395 14.2977 30.821 14.6348 30.8223 14.9769C30.8235 15.319 30.7444 15.6567 30.5914 15.9623C30.4383 16.268 30.2156 16.5331 29.9414 16.736V16.7367Z" fill="#FFAC00"/>
<path d="M29.9412 16.7367L15.2865 27.467L15.1119 26.9347C14.9691 26.4977 14.9679 26.0264 15.1085 25.5887C15.2491 25.151 15.5242 24.7692 15.8943 24.4984L30.484 13.8164C30.779 14.2816 30.887 14.842 30.7862 15.3841C30.6855 15.9263 30.3834 16.4098 29.9412 16.7367Z" fill="#FF7900"/>
<path d="M64.4278 16.4159L63.2772 20.033L50.6205 10.7554C50.2499 10.4841 49.8032 10.338 49.3447 10.338C48.8861 10.338 48.4394 10.4841 48.0688 10.7554L47.1064 11.4603L44.0004 13.7315L30.0977 23.9029L27.2787 18.4498C27.0401 17.9881 26.9741 17.4559 27.0927 16.9495C27.2113 16.4432 27.5066 15.9963 27.9251 15.6899L46.9561 1.75452L63.6427 13.9973C64.0097 14.2666 64.283 14.6452 64.4239 15.0793C64.5649 15.5134 64.5662 15.981 64.4278 16.4159Z" fill="#700070"/>
<path d="M30.0972 23.9028L30.8214 25.3038L25.312 29.3369C25.1534 29.4525 24.9722 29.5327 24.7803 29.5725C24.5884 29.6122 24.3903 29.6105 24.1992 29.5674C24.008 29.5243 23.8282 29.4409 23.6716 29.3226C23.515 29.2044 23.3853 29.054 23.291 28.8815L18.6209 20.3306C18.3676 19.8673 18.2909 19.3273 18.4052 18.8114C18.5194 18.2955 18.8167 17.839 19.2416 17.5272L42.5786 0.417967C42.9494 0.146048 43.3967 -0.000488281 43.8558 -0.000488281C44.3149 -0.000488281 44.7622 0.146048 45.133 0.417967L46.9557 1.75508L27.9246 15.6905C27.5061 15.9969 27.2108 16.4438 27.0922 16.9501C26.9736 17.4564 27.0396 17.9887 27.2782 18.4503L30.0972 23.9028Z" fill="#660066"/>
<path d="M63.2774 20.0329L62.4523 22.7207L49.6907 13.3588C49.32 13.0872 48.8731 12.9409 48.4142 12.9409C47.9554 12.9409 47.5084 13.0872 47.1377 13.3588L45.3103 14.6946L43.5871 15.9563L30.8214 25.3038L25.312 29.3369C25.1534 29.4525 24.9722 29.5328 24.7803 29.5725C24.5884 29.6122 24.3903 29.6105 24.1992 29.5674C24.008 29.5243 23.8282 29.4409 23.6716 29.3226C23.515 29.2044 23.3853 29.054 23.291 28.8815L30.0972 23.9028L48.0663 10.7546C48.4369 10.4833 48.8836 10.3372 49.3421 10.3372C49.8007 10.3372 50.2474 10.4833 50.618 10.7546L63.2774 20.0329Z" fill="#FFCC00"/>
<path d="M62.4536 22.7208L61.5474 25.5792C61.4431 25.9076 61.2627 26.2064 61.0209 26.451C60.7791 26.6956 60.4829 26.879 60.1567 26.9861C59.8305 27.0932 59.4837 27.1209 59.1447 27.0669C58.8058 27.0129 58.4845 26.8789 58.2072 26.6757L43.5918 15.955L44.0378 15.6287L47.1391 13.3575C47.5098 13.0858 47.9569 12.9393 48.4159 12.9393C48.8749 12.9393 49.322 13.0858 49.6927 13.3575L62.4536 22.7208Z" fill="#FFAC00"/>
<path d="M61.1501 26.3072C60.7978 26.733 60.2972 27.0079 59.7501 27.0759C59.2031 27.1438 58.6508 26.9997 58.2059 26.673L43.5918 15.9549L44.0378 15.6287C44.4086 15.3569 44.8557 15.2104 45.3147 15.2104C45.7736 15.2104 46.2208 15.3569 46.5915 15.6287L61.1501 26.3072Z" fill="#FF7900"/>
<path d="M54.207 16.6714C53.7797 16.3584 53.2531 16.2133 52.7266 16.2634C52.2 16.3134 51.71 16.5553 51.3487 16.9433L44.7158 24.0592C44.5811 24.2036 44.4785 24.3751 44.4147 24.5624C44.351 24.7496 44.3275 24.9483 44.3459 25.1454C44.3644 25.3424 44.4243 25.5333 44.5216 25.7053C44.619 25.8774 44.7516 26.0267 44.9108 26.1434L50.2807 30.0861C50.2823 30.0875 50.2844 30.0882 50.2865 30.0882C50.2886 30.0882 50.2906 30.0875 50.2922 30.0861L51.386 28.957L55.6229 24.5792C55.9864 24.2024 56.4733 23.9702 56.9939 23.9255C57.5144 23.8807 58.0335 24.0265 58.4554 24.3359L77.6449 38.414C77.646 38.4148 77.6474 38.4153 77.6488 38.4155C77.6501 38.4157 77.6516 38.4156 77.6529 38.4151C77.6542 38.4146 77.6554 38.4139 77.6564 38.4129C77.6573 38.4118 77.658 38.4106 77.6584 38.4092L78.3488 36.2204C78.4857 35.786 78.4834 35.3194 78.3422 34.8864C78.201 34.4534 77.9279 34.0759 77.5616 33.8072L54.207 16.6714Z" fill="#660066"/>
<path d="M77.6531 38.4187L71.4371 58.139C71.2982 58.5794 71.0234 58.964 70.6524 59.237C70.2813 59.5101 69.8334 59.6574 69.3734 59.6576H65.5595L70.321 44.6876C70.4593 44.2526 70.4579 43.785 70.3169 43.3509C70.1758 42.9168 69.9024 42.5383 69.5352 42.269L51.3867 28.9515L55.6237 24.5738C55.9878 24.1983 56.4746 23.9674 56.9947 23.9237C57.5147 23.88 58.033 24.0264 58.4542 24.3358L77.6531 38.4187Z" fill="#700070"/>
<path d="M70.3222 44.6876L65.5607 59.6576H62.7898L67.5756 44.6094C67.714 44.1745 67.7125 43.7068 67.5715 43.2727C67.4305 42.8386 67.157 42.4601 66.7898 42.1908L64.9401 40.8312L63.2114 39.5635L44.9127 26.1413C44.7536 26.0246 44.6209 25.8753 44.5236 25.7032C44.4262 25.5312 44.3663 25.3403 44.3479 25.1433C44.3295 24.9463 44.3529 24.7476 44.4167 24.5603C44.4804 24.3731 44.5831 24.2016 44.7178 24.0571L69.5357 42.269C69.903 42.5382 70.1766 42.9167 70.3178 43.3508C70.4589 43.7849 70.4605 44.2526 70.3222 44.6876Z" fill="#FFCC00"/>
<path d="M67.5759 44.6095L62.79 59.6577H59.7863C59.4459 59.6585 59.1101 59.5786 58.8062 59.4245C58.5024 59.2703 58.2391 59.0463 58.0378 58.7706C57.8364 58.4949 57.7028 58.1754 57.6477 57.838C57.5925 57.5007 57.6175 57.155 57.7206 56.8291L63.2117 39.5629L63.6794 39.9028L63.695 39.915L66.7901 42.1848C67.1585 42.4544 67.4328 42.834 67.5739 43.2694C67.7149 43.7047 67.7157 44.1737 67.5759 44.6095Z" fill="#FFAC00"/>
<path d="M64.4642 42.3282L58.9988 59.5108C58.4865 59.3104 58.0693 58.9218 57.8317 58.4238C57.5942 57.9258 57.5541 57.3557 57.7196 56.8291L63.2107 39.5629L63.6784 39.9028L63.694 39.915C64.0573 40.186 64.327 40.5645 64.4651 40.9973C64.6032 41.4301 64.6029 41.8956 64.4642 42.3282Z" fill="#FF7900"/>
<path d="M60.0657 56.1541L52.7993 79H32.0586C31.6049 79.0001 31.1626 78.8571 30.7942 78.5913C30.4257 78.3254 30.1497 77.95 30.0051 77.5181L28.7949 73.9017L44.5298 73.9697C44.9906 73.9716 45.44 73.826 45.8127 73.5539C46.1854 73.2817 46.462 72.8973 46.6023 72.4565L53.4274 50.9994L58.903 53.5146C59.3845 53.7357 59.7688 54.1264 59.983 54.6127C60.1973 55.0991 60.2267 55.6474 60.0657 56.1541Z" fill="#700070"/>
<path d="M55.9315 43.131C55.7547 43.0469 55.5621 43.0017 55.3666 42.9984C55.171 42.9951 54.977 43.0338 54.7975 43.1119C54.6181 43.1901 54.4573 43.3058 54.3261 43.4515C54.1948 43.5971 54.096 43.7692 54.0363 43.9563L52.0059 50.3462L53.4319 51.0008L58.9075 53.5159C59.3892 53.7371 59.7736 54.1279 59.9878 54.6144C60.2021 55.1009 60.2314 55.6494 60.0703 56.1562L52.8005 79H55.055C55.5143 79.0001 55.9618 78.8535 56.3328 78.5813C56.7037 78.3092 56.9789 77.9257 57.1186 77.4862L65.8741 49.9553C66.0336 49.4538 66.0066 48.9113 65.7981 48.4283C65.5896 47.9452 65.2138 47.5546 64.7404 47.3286L55.9315 43.131Z" fill="#660066"/>
<path d="M55.9318 43.131L46.6037 72.4579C46.4635 72.8987 46.1869 73.2831 45.8142 73.5553C45.4415 73.8274 44.9921 73.973 44.5313 73.971L28.7964 73.9031L27.9043 71.2377L40.0331 71.2519H43.7719C44.2312 71.252 44.6787 71.1054 45.0497 70.8333C45.4206 70.5611 45.6958 70.1776 45.8355 69.7381L47.1689 65.5466L54.0346 43.9563C54.0943 43.7692 54.193 43.5971 54.3243 43.4515C54.4556 43.3058 54.6164 43.1901 54.7958 43.1119C54.9753 43.0338 55.1693 42.9951 55.3648 42.9984C55.5604 43.0017 55.753 43.0469 55.9297 43.131H55.9318Z" fill="#FFCC00"/>
<path d="M40.7218 65.5438L40.2609 69.3621C40.2039 69.8337 39.9949 70.2735 39.6656 70.6145C39.3364 70.9555 38.905 71.1789 38.4375 71.2505H43.7723C44.2314 71.2505 44.6787 71.1039 45.0495 70.8319C45.4203 70.5599 45.6955 70.1766 45.8352 69.7374L47.1686 65.5452L40.7218 65.5438Z" fill="#FFAC00"/>
<path d="M47.169 65.5452L47.0086 66.0475C46.8689 66.4869 46.5938 66.8704 46.223 67.1425C45.8522 67.4146 45.4048 67.5613 44.9456 67.5614H40.4785L40.7222 65.5438L47.169 65.5452Z" fill="#FF7900"/>
<path d="M37.3211 54.8252C44.6652 54.8252 50.6187 48.8457 50.6187 41.4697C50.6187 34.0936 44.6652 28.1141 37.3211 28.1141C29.977 28.1141 24.0234 34.0936 24.0234 41.4697C24.0234 48.8457 29.977 54.8252 37.3211 54.8252Z" fill="#FFCC00"/>
<path d="M37.3211 51.7533C42.976 51.7533 47.5602 47.1492 47.5602 41.4697C47.5602 35.7902 42.976 31.186 37.3211 31.186C31.6662 31.186 27.082 35.7902 27.082 41.4697C27.082 47.1492 31.6662 51.7533 37.3211 51.7533Z" fill="#FF9919"/>
<path d="M37.3221 44.9827C39.2539 44.9827 40.8199 43.4098 40.8199 41.4696C40.8199 39.5294 39.2539 37.9565 37.3221 37.9565C35.3903 37.9565 33.8242 39.5294 33.8242 41.4696C33.8242 43.4098 35.3903 44.9827 37.3221 44.9827Z" fill="#FF7900"/>
<path d="M108.017 0.488403V1.15526C107.437 1.18925 107.049 1.34787 106.854 1.6311C106.659 1.91434 106.562 2.55809 106.561 3.56234V12.3831C106.561 13.7232 106.651 14.7578 106.832 15.487C107.159 16.8438 107.785 17.5222 108.712 17.5222C109.863 17.5222 110.64 16.7717 111.045 15.2708C111.271 14.4469 111.384 13.2929 111.384 11.8087V3.75336C111.384 2.81119 111.285 2.16201 111.087 1.80581C110.89 1.4496 110.503 1.23276 109.926 1.15526V0.488403H113.218V1.15526C112.74 1.31841 112.424 1.51781 112.27 1.75346C112.116 1.98912 112.039 2.53113 112.039 3.37949V11.8012C112.039 14.0386 111.732 15.7657 111.118 16.9825C110.504 18.1993 109.54 18.8076 108.226 18.8076C106.504 18.8076 105.326 17.9029 104.693 16.0933C104.356 15.133 104.188 13.8933 104.188 12.3743V3.56098C104.188 2.57214 104.113 1.94969 103.964 1.69364C103.815 1.4376 103.479 1.25813 102.955 1.15526V0.488403H108.017Z" fill="black"/>
<path d="M113.775 17.6126C114.331 17.5868 114.69 17.4003 114.85 17.0532C115.011 16.706 115.091 16.1939 115.092 15.5169V3.0464C114.633 2.14819 114.35 1.61909 114.242 1.45912C114.141 1.30433 113.983 1.19567 113.803 1.15662V0.488403H116.977L122.127 11.4878H122.201V3.75336C122.201 2.8624 122.108 2.22613 121.924 1.84455C121.739 1.46297 121.371 1.23321 120.818 1.15526V0.488403H124.037V1.15526C123.568 1.29122 123.255 1.47453 123.097 1.7052C122.938 1.93587 122.859 2.45114 122.859 3.25101V18.7696H122.442L115.851 4.69009H115.749V15.0152C115.749 15.8255 115.812 16.3983 115.939 16.7337C116.139 17.2775 116.548 17.5705 117.168 17.6126V18.2808H113.775V17.6126Z" fill="black"/>
<path d="M124.592 17.6126C125.016 17.5949 125.321 17.5043 125.506 17.3407C125.808 17.0688 125.959 16.5417 125.96 15.7595V3.00765C125.96 2.23361 125.816 1.71449 125.528 1.45028C125.352 1.2885 125.04 1.19061 124.592 1.15662V0.488403H129.829V1.15526C129.361 1.18925 129.039 1.28283 128.863 1.43601C128.571 1.69976 128.425 2.22319 128.425 3.00629V15.7609C128.425 16.4982 128.542 16.9911 128.776 17.2394C129.01 17.4878 129.361 17.6122 129.829 17.6126V18.2808H124.592V17.6126Z" fill="black"/>
<path d="M135.448 0.488403V1.13079C134.911 1.18245 134.563 1.26199 134.405 1.36939C134.247 1.4768 134.168 1.74531 134.168 2.17492C134.167 2.30182 134.173 2.42866 134.186 2.55492C134.2 2.68303 134.222 2.81001 134.254 2.93491L136.629 12.6754H136.606L138.568 3.75948C138.612 3.56166 138.651 3.35977 138.686 3.1538C138.737 2.88614 138.766 2.61467 138.773 2.34215C138.773 1.84365 138.689 1.53231 138.521 1.40814C138.353 1.28397 138.01 1.19152 137.493 1.13079V0.488403H140.682V1.13079C140.512 1.1574 140.351 1.22135 140.209 1.31807C140.066 1.41479 139.947 1.54188 139.86 1.69024C139.676 1.99478 139.499 2.52818 139.329 3.29043L135.913 18.7696H135.518L131.66 2.99881C131.504 2.36435 131.344 1.90777 131.181 1.62907C131.101 1.49223 130.99 1.37617 130.857 1.29022C130.724 1.20427 130.573 1.15083 130.416 1.13419V0.488403H135.448Z" fill="black"/>
<path d="M141.24 18.2808V17.6126C141.669 17.5868 141.974 17.4839 142.155 17.304C142.432 17.0294 142.571 16.515 142.572 15.7609V3.00765C142.572 2.24222 142.428 1.72741 142.14 1.4632C141.974 1.30323 141.674 1.20058 141.24 1.15526V0.488403H149.872V5.79744H149.506C149.316 4.10073 148.993 2.93854 148.536 2.31088C148.08 1.68322 147.25 1.37052 146.046 1.37279C145.588 1.37279 145.296 1.45618 145.172 1.62295C145.047 1.78972 144.985 2.1219 144.985 2.6195V8.713C145.838 8.73067 146.416 8.45876 146.719 7.89727C147.022 7.33577 147.253 6.31022 147.413 4.82061H147.793V13.7168H147.413C147.306 12.2172 147.088 11.1609 146.758 10.5477C146.429 9.93455 145.838 9.6282 144.984 9.62865V16.0056C144.984 16.5621 145.066 16.9412 145.229 17.1429C145.393 17.3445 145.728 17.4454 146.235 17.4454C147.191 17.4454 147.971 17.1195 148.576 16.4679C149.181 15.8162 149.718 14.5949 150.185 12.8039H150.602L149.993 18.2808H141.24Z" fill="black"/>
<path d="M151.233 17.6126C151.74 17.57 152.086 17.4028 152.271 17.1109C152.456 16.8191 152.548 16.1846 152.549 15.2076V3.56099C152.549 2.54631 152.439 1.88557 152.22 1.57876C152.074 1.37392 151.745 1.23321 151.233 1.15662V0.488403H156.053C157.053 0.488403 157.862 0.672622 158.481 1.04106C159.681 1.78655 160.281 3.12774 160.281 5.06465C160.281 6.49625 159.967 7.62332 159.338 8.44585C158.858 9.06308 158.35 9.45735 157.814 9.62865L160.995 17.1238C161.078 17.3278 161.166 17.4637 161.258 17.5317C161.362 17.5995 161.479 17.6413 161.602 17.6534V18.2835H158.477L154.981 10.0583H154.975V15.2137C154.975 16.1395 155.063 16.7631 155.239 17.0844C155.414 17.4057 155.765 17.5836 156.292 17.618V18.2863H151.23L151.233 17.6126ZM157.08 8.47848C157.502 8.01985 157.713 6.95918 157.713 5.29645C157.713 4.27679 157.633 3.47103 157.472 2.87917C157.194 1.87673 156.687 1.37551 155.951 1.37551C155.551 1.37551 155.289 1.4632 155.164 1.63858C155.04 1.81396 154.977 2.10332 154.977 2.50665V9.20448C155.957 9.17864 156.658 8.93664 157.08 8.47848Z" fill="black"/>
<path d="M162.336 12.1356H162.768C163.006 14.1029 163.391 15.5332 163.923 16.4264C164.455 17.3196 165.064 17.7664 165.751 17.7669C166.418 17.7669 166.892 17.4601 167.172 16.8465C167.451 16.2398 167.595 15.579 167.594 14.9105C167.594 14.1215 167.447 13.4782 167.153 12.9806C166.959 12.6548 166.565 12.2301 165.972 11.7067L165.018 10.8577C164.07 10.0175 163.402 9.18543 163.013 8.36154C162.625 7.53765 162.43 6.52139 162.429 5.31275C162.42 4.06926 162.684 2.83903 163.203 1.70995C163.718 0.595116 164.507 0.0377012 165.572 0.0377012C166.126 0.040437 166.67 0.191549 167.147 0.475476C167.653 0.766873 167.941 0.912571 168.013 0.912571C168.089 0.915237 168.164 0.891905 168.226 0.846366C168.287 0.800827 168.332 0.735758 168.352 0.661734C168.425 0.446975 168.476 0.225048 168.503 -0.000366211L168.949 -0.000366211V5.73353H168.53C168.335 4.40525 167.991 3.26097 167.497 2.30067C167.004 1.34038 166.404 0.860455 165.699 0.860908C165.203 0.860908 164.811 1.10336 164.523 1.58827C164.235 2.07317 164.091 2.66231 164.09 3.35568C164.09 4.18773 164.226 4.80949 164.496 5.22098C164.762 5.64154 165.356 6.25922 166.28 7.07405L167.386 8.05156C167.859 8.4645 168.258 8.95585 168.565 9.50424C169.113 10.4981 169.387 11.7058 169.387 13.1274C169.393 14.4324 169.091 15.7203 168.507 16.8859C167.921 18.0642 166.979 18.6533 165.683 18.6533C165.376 18.6519 165.071 18.6022 164.78 18.5058C164.458 18.3987 164.154 18.2451 163.876 18.0497L163.589 17.8566C163.526 17.8245 163.461 17.7965 163.395 17.773C163.344 17.7541 163.29 17.7433 163.236 17.7411C163.082 17.7411 162.978 17.8199 162.919 17.979C162.848 18.1985 162.797 18.4243 162.768 18.6533H162.337L162.336 12.1356Z" fill="black"/>
<path d="M170.383 17.6126C170.807 17.5949 171.112 17.5043 171.297 17.3407C171.599 17.0688 171.75 16.5417 171.751 15.7595V3.00765C171.751 2.23361 171.607 1.71449 171.319 1.45028C171.144 1.2885 170.832 1.19061 170.383 1.15662V0.488403H175.62V1.15526C175.152 1.18925 174.83 1.28283 174.654 1.43601C174.362 1.70203 174.216 2.22591 174.216 3.00765V15.7609C174.216 16.4982 174.333 16.9911 174.567 17.2394C174.801 17.4878 175.152 17.6122 175.62 17.6126V18.2808H170.383V17.6126Z" fill="black"/>
<path d="M176.366 0.488403H185.383L185.397 5.79744H184.966C184.825 3.89815 184.42 2.61315 183.752 1.94244C183.377 1.57355 182.816 1.37166 182.069 1.33676V15.2042C182.069 16.1735 182.166 16.8168 182.358 17.134C182.551 17.4513 182.952 17.6099 183.562 17.6099V18.2781H178.222V17.6126C178.808 17.6126 179.197 17.4517 179.388 17.13C179.58 16.8082 179.676 16.1669 179.677 15.2062V1.3388C178.946 1.37324 178.385 1.57514 177.995 1.94448C177.28 2.63105 176.876 3.91537 176.783 5.79744H176.352L176.366 0.488403Z" fill="black"/>
<path d="M185.129 17.6126C185.49 17.57 185.78 17.2827 185.999 16.7506C186.141 16.4171 186.344 15.6802 186.608 14.54L189.936 0.128784H190.353L193.696 13.9622C194.072 15.5134 194.352 16.5141 194.538 16.9641C194.723 17.4141 194.986 17.6305 195.327 17.6133V18.2815H190.478V17.6126C190.965 17.5777 191.286 17.5047 191.44 17.3937C191.594 17.2827 191.67 16.9999 191.67 16.5453C191.657 16.2297 191.618 15.9157 191.553 15.6066C191.504 15.3587 191.438 15.0587 191.355 14.7065L190.974 13.1125H187.611C187.389 14.1593 187.247 14.8414 187.184 15.1586C187.053 15.8357 186.987 16.3285 186.987 16.6371C186.987 17.0146 187.131 17.289 187.418 17.4603C187.589 17.555 187.845 17.6065 188.186 17.6146V18.2828H185.129V17.6126ZM190.753 12.0711L189.308 5.97756H189.183L187.829 12.0711H190.753Z" fill="black"/>
<path d="M196.203 12.1356H196.635C196.873 14.1029 197.258 15.5332 197.79 16.4264C198.321 17.3196 198.93 17.7664 199.617 17.7669C200.285 17.7669 200.759 17.4601 201.038 16.8465C201.319 16.24 201.463 15.5791 201.461 14.9105C201.461 14.1215 201.314 13.4782 201.02 12.9806C200.826 12.6548 200.432 12.2301 199.839 11.7067L198.885 10.8577C197.937 10.0175 197.269 9.18543 196.88 8.36154C196.491 7.53765 196.297 6.52139 196.297 5.31275C196.287 4.06931 196.551 2.83907 197.069 1.70995C197.585 0.595116 198.375 0.0377012 199.438 0.0377012C199.993 0.0401742 200.537 0.191305 201.013 0.475476C201.52 0.766873 201.809 0.912571 201.88 0.912571C202.043 0.912571 202.156 0.828959 202.219 0.661734C202.293 0.447025 202.344 0.225098 202.371 -0.000366211L202.817 -0.000366211V5.73353H202.4C202.204 4.40525 201.86 3.26097 201.367 2.30067C200.873 1.34038 200.274 0.860455 199.569 0.860908C199.073 0.860908 198.681 1.10336 198.393 1.58827C198.105 2.07317 197.961 2.66231 197.96 3.35568C197.96 4.18773 198.096 4.80949 198.366 5.22098C198.632 5.64154 199.226 6.25922 200.15 7.07405L201.256 8.05156C201.728 8.4645 202.127 8.95586 202.435 9.50424C202.983 10.4981 203.257 11.7058 203.257 13.1274C203.263 14.4324 202.961 15.7203 202.377 16.8859C201.791 18.0642 200.849 18.6533 199.553 18.6533C199.246 18.6519 198.941 18.6021 198.65 18.5058C198.328 18.3987 198.024 18.2451 197.747 18.0497L197.459 17.8566C197.396 17.8246 197.332 17.7967 197.265 17.773C197.214 17.7541 197.161 17.7433 197.107 17.7411C197.035 17.7389 196.964 17.7612 196.907 17.8044C196.849 17.8476 196.808 17.9092 196.79 17.979C196.718 18.1985 196.668 18.4243 196.639 18.6533H196.207L196.203 12.1356Z" fill="black"/>
<path d="M91.0273 54.4839C91.6739 54.4059 92.1928 53.8834 92.584 52.9163C92.8372 52.3077 93.1997 50.9662 93.6717 48.892L99.6346 22.6656H100.379L106.369 47.8397C107.042 50.6626 107.544 52.4835 107.876 53.3024C108.207 54.1213 108.679 54.5151 109.292 54.4839V55.7006H100.608V54.4839C101.481 54.4218 102.056 54.2892 102.332 54.0862C102.607 53.8832 102.745 53.3683 102.745 52.5417C102.745 52.1679 102.675 51.5987 102.535 50.8341C102.445 50.381 102.326 49.8351 102.18 49.1966L101.497 46.2926H95.4734C95.0795 48.1959 94.8259 49.4358 94.7127 50.0123C94.4762 51.2445 94.3582 52.1413 94.3587 52.7028C94.3587 53.3894 94.6163 53.8879 95.1316 54.1983C95.4376 54.3701 95.8962 54.4637 96.5076 54.4791V55.6959H91.0294L91.0273 54.4839ZM101.104 44.4001L98.5219 33.3089H98.2965L95.8741 44.398L101.104 44.4001Z" fill="black"/>
<path d="M110.857 54.4836C111.88 54.4677 112.544 54.1442 112.85 53.5129C113.156 52.8816 113.309 51.934 113.308 50.6701V27.9064C113.308 26.6053 113.134 25.7495 112.784 25.3389C112.435 24.9283 111.815 24.661 110.923 24.5368V23.3207H117.686L122.965 45.4997H123.188L128.439 23.3207H135.208V24.5395C134.298 24.6641 133.678 24.963 133.346 25.4361C133.015 25.9093 132.849 27.0687 132.848 28.9145V50.1086C132.848 51.8714 133.014 53.0257 133.346 53.5713C133.679 54.117 134.299 54.421 135.208 54.4836V55.7004H126.297V54.4836C127.092 54.4383 127.691 54.2003 128.092 53.7698C128.494 53.3393 128.695 52.3996 128.695 50.9508V27.5305H128.499L121.92 55.7004H121.199L114.554 28.0934H114.436V49.7592C114.436 51.358 114.602 52.5256 114.934 53.262C115.266 53.9985 116 54.4063 117.136 54.4856V55.7024H110.857V54.4836Z" fill="black"/>
<path d="M136.821 54.4836C137.581 54.4523 138.127 54.2885 138.459 53.9921C139 53.4936 139.271 52.5344 139.271 51.1146V27.9064C139.271 26.4966 139.013 25.5517 138.497 25.0718C138.182 24.7777 137.623 24.5993 136.82 24.5368V23.3207H146.205V24.5395C145.365 24.6021 144.789 24.7724 144.475 25.0507C143.95 25.5315 143.688 26.4832 143.688 27.9058V51.1146C143.688 52.4565 143.898 53.3533 144.317 53.8052C144.736 54.257 145.365 54.4836 146.205 54.4849V55.7017H136.821V54.4836Z" fill="black"/>
<path d="M148.066 54.4836C148.796 54.4383 149.314 54.2667 149.623 53.969C150.142 53.4705 150.401 52.5188 150.401 51.1139V27.9064C150.401 26.5279 150.164 25.5988 149.689 25.1194C149.399 24.8248 148.859 24.6311 148.068 24.5382V23.3207H157.151V24.5395C156.224 24.6795 155.6 24.99 155.277 25.4708C154.954 25.9516 154.792 27.0986 154.791 28.9118V39.1825L160.565 28.7392C160.967 28.0236 161.227 27.514 161.345 27.2103C161.472 26.8547 161.532 26.4786 161.522 26.101C161.522 25.4941 161.367 25.1051 161.057 24.9338C160.746 24.7625 160.147 24.6311 159.258 24.5395V23.3207H167.03V24.5395C165.641 24.743 164.49 25.4454 163.578 26.6468C162.666 27.8482 160.937 30.7712 158.393 35.4159L166.582 53.5074C166.757 53.8963 166.93 54.1414 167.1 54.2429C167.271 54.3445 167.535 54.426 167.894 54.4877V55.7045H158.892V54.4836C159.704 54.4677 160.259 54.4054 160.557 54.2966C160.855 54.1879 161.004 53.916 161.003 53.4809C160.991 53.2142 160.943 52.9503 160.858 52.6971C160.714 52.2544 160.544 51.8208 160.347 51.3988L155.468 40.5142L154.791 41.7331V51.1139C154.791 52.502 155.05 53.4456 155.568 53.9445C155.868 54.2414 156.386 54.4208 157.125 54.4829V55.6997H148.069L148.066 54.4836Z" fill="black"/>
<path d="M185.992 27.2742C187.837 30.4719 188.76 34.5906 188.76 39.6305C188.76 44.6703 187.837 48.7868 185.992 51.9799C184.192 55.1001 181.942 56.66 179.242 56.6595C176.377 56.6595 174.039 54.9517 172.23 51.5361C170.545 48.323 169.702 44.4392 169.701 39.8847C169.701 34.8625 170.584 30.737 172.348 27.5081C174.134 24.2329 176.433 22.5953 179.245 22.5953C181.954 22.5953 184.203 24.155 185.992 27.2742ZM183.386 48.6579C183.788 46.3503 183.989 43.34 183.99 39.6271C183.99 34.5265 183.563 30.6819 182.71 28.0934C181.857 25.5048 180.699 24.2103 179.238 24.2098C177.208 24.2098 175.817 26.3699 175.065 30.6901C174.671 32.9827 174.474 35.9617 174.474 39.6271C174.474 43.355 174.675 46.3652 175.078 48.6579C175.822 52.9178 177.208 55.0478 179.238 55.0478C181.25 55.046 182.633 52.916 183.386 48.6579Z" fill="black"/>
<path d="M190.648 54.4836C191.67 54.4677 192.334 54.1442 192.64 53.5129C192.946 52.8816 193.099 51.934 193.099 50.6701V27.9064C193.099 26.6053 192.924 25.7495 192.575 25.3389C192.225 24.9283 191.605 24.6619 190.714 24.5395V23.3207H197.477L202.756 45.4997H202.98L208.23 23.3207H214.999V24.5395C214.09 24.6641 213.47 24.963 213.137 25.4361C212.805 25.9093 212.639 27.0687 212.639 28.9145V50.1086C212.639 51.8714 212.805 53.0257 213.137 53.5713C213.47 54.117 214.09 54.421 214.999 54.4836V55.7004H206.088V54.4836C206.883 54.4383 207.482 54.2003 207.883 53.7698C208.285 53.3393 208.486 52.3996 208.486 50.9508V27.5305H208.289L201.71 55.7004H200.99L194.345 28.0934H194.226V49.7592C194.226 51.358 194.392 52.5256 194.724 53.262C195.056 53.9985 195.79 54.4063 196.926 54.4856V55.7024H190.648V54.4836Z" fill="black"/>
<path d="M107.913 61.1115V61.7593C107.424 61.8091 107.111 61.8755 106.972 61.9585C106.834 62.0414 106.764 62.2156 106.764 62.4812C106.765 62.6085 106.778 62.7355 106.802 62.8605C106.827 62.9965 106.886 63.2434 106.979 63.6015L108.852 69.7262H108.87L110.391 65.2438C110.488 64.9719 110.589 64.6359 110.696 64.2357C110.857 63.6298 110.937 63.1816 110.938 62.8911C110.938 62.4434 110.839 62.1447 110.64 61.9952C110.505 61.895 110.209 61.8162 109.754 61.7586V61.1115H112.867V61.7593C112.674 61.8171 112.492 61.9052 112.326 62.0203C112.155 62.178 112.012 62.4187 111.897 62.7422L109.19 70.6718V75.3622C109.19 76.3334 109.281 76.9579 109.465 77.2357C109.649 77.5135 109.993 77.6651 110.498 77.6905V78.3376H105.585V77.6905C106.111 77.6651 106.461 77.5033 106.635 77.2051C106.808 76.9069 106.895 76.2926 106.894 75.3622V71.6153L104.307 63.1508C104.136 62.5947 103.927 62.2045 103.677 61.9802C103.538 61.8512 103.36 61.7725 103.172 61.7566V61.1115H107.913Z" fill="black"/>
<path d="M122.262 63.2146C123.235 64.9159 123.722 67.1068 123.723 69.7874C123.723 72.4679 123.236 74.6588 122.262 76.3601C121.311 78.0201 120.123 78.8501 118.697 78.8501C117.184 78.8501 115.949 77.9412 114.994 76.1235C114.104 74.4146 113.658 72.3483 113.658 69.9247C113.658 67.2509 114.124 65.0557 115.057 63.339C115.998 61.597 117.211 60.7257 118.697 60.7253C120.128 60.7253 121.316 61.5551 122.262 63.2146ZM120.881 74.5927C121.094 73.3646 121.2 71.7628 121.2 69.7874C121.2 67.0737 120.974 65.028 120.523 63.6503C120.072 62.2727 119.462 61.585 118.694 61.5872C117.622 61.5872 116.887 62.7367 116.489 65.0357C116.282 66.2552 116.178 67.8414 116.177 69.7942C116.177 71.7777 116.284 73.3795 116.497 74.5995C116.889 76.8654 117.622 77.9984 118.694 77.9984C119.756 77.9934 120.486 76.8581 120.881 74.5927Z" fill="black"/>
<path d="M126.111 63.4634C127.053 61.6797 128.255 60.7876 129.718 60.7872C130.305 60.7872 130.888 60.9843 131.469 61.3786C132.05 61.7728 132.412 61.97 132.556 61.97C132.708 61.97 132.827 61.8748 132.923 61.6838C133.019 61.4928 133.091 61.2025 133.151 60.8123H133.545V66.7753H133.185C132.844 65.4801 132.496 64.4593 132.14 63.7129C131.476 62.3352 130.724 61.6464 129.884 61.6464C128.97 61.6464 128.303 62.3602 127.883 63.7877C127.463 65.2152 127.253 67.2235 127.254 69.8125C127.254 71.9371 127.449 73.8314 127.838 75.4955C128.228 77.1595 128.982 77.9914 130.098 77.9909C130.703 77.9909 131.109 77.7627 131.317 77.3064C131.436 77.0494 131.496 76.6595 131.497 76.1365V73.4473C131.497 72.6769 131.365 72.1707 131.102 71.9287C130.932 71.7791 130.585 71.6962 130.064 71.6799V71.0361H134.923V71.6833C134.434 71.7164 134.11 71.8927 133.95 72.2121C133.79 72.5316 133.711 73.1312 133.712 74.0108V77.2602C133.396 77.6091 132.888 77.9576 132.189 78.3056C131.456 78.6614 130.65 78.8404 129.835 78.8284C128.262 78.8284 127.004 77.9363 126.063 76.1521C125.186 74.484 124.748 72.3925 124.748 69.8778C124.748 67.3363 125.202 65.1982 126.111 63.4634Z" fill="black"/>
<path d="M140.204 61.1115V61.7593C139.715 61.8091 139.402 61.8755 139.263 61.9585C139.125 62.0414 139.055 62.2156 139.055 62.4812C139.056 62.6085 139.069 62.7355 139.093 62.8605C139.118 62.9965 139.177 63.2434 139.27 63.6015L141.143 69.7262H141.161L142.683 65.2445C142.78 64.9726 142.881 64.6365 142.987 64.2364C143.148 63.6305 143.229 63.1823 143.229 62.8918C143.229 62.444 143.13 62.1454 142.932 61.9958C142.796 61.8957 142.501 61.8168 142.046 61.7593V61.1115H145.159V61.7593C144.966 61.8171 144.783 61.9052 144.618 62.0203C144.447 62.178 144.304 62.4187 144.189 62.7422L141.481 70.6718V75.3622C141.481 76.3334 141.573 76.9579 141.757 77.2357C141.94 77.5135 142.285 77.6651 142.79 77.6905V78.3376H137.875V77.6905C138.401 77.6651 138.751 77.5033 138.924 77.2051C139.097 76.9069 139.184 76.2926 139.183 75.3622V71.6153L136.598 63.1508C136.427 62.5947 136.218 62.2045 135.968 61.9802C135.829 61.8512 135.652 61.7725 135.463 61.7566V61.1115H140.204Z" fill="black"/>
<path d="M144.447 77.6925C144.788 77.6508 145.062 77.3728 145.27 76.8584C145.406 76.5348 145.597 75.8211 145.845 74.7171L148.994 60.7627H149.389L152.552 74.1542C152.907 75.6565 153.173 76.6255 153.348 77.061C153.524 77.4965 153.772 77.7061 154.093 77.6898V78.3369H149.504V77.6898C149.965 77.6564 150.269 77.5858 150.414 77.4777C150.559 77.3696 150.632 77.0963 150.632 76.6565C150.62 76.351 150.583 76.0471 150.521 75.7476C150.476 75.507 150.414 75.2165 150.334 74.8762L149.974 73.3324H146.793C146.585 74.3453 146.451 75.0051 146.391 75.3119C146.266 75.9677 146.204 76.4449 146.204 76.7435C146.204 77.1083 146.339 77.3739 146.61 77.5402C146.771 77.6308 147.013 77.6807 147.337 77.6898V78.3369H144.443L144.447 77.6925ZM149.768 72.3277L148.405 66.4273H148.286L147.007 72.3277H149.768Z" fill="black"/>
<path d="M154.781 77.6925C155.166 77.6671 155.44 77.5765 155.602 77.4206C155.877 77.1546 156.014 76.6484 156.013 75.902V63.5512C156.013 62.8179 155.888 62.3233 155.637 62.0672C155.484 61.9109 155.199 61.808 154.781 61.7586V61.1115H159.578V61.7593C159.089 61.8331 158.759 61.9981 158.588 62.2542C158.417 62.5102 158.332 63.122 158.332 64.0895V69.5542L161.382 63.9971C161.535 63.7336 161.672 63.4612 161.793 63.1814C161.861 62.9922 161.893 62.7922 161.887 62.5913C161.887 62.2687 161.805 62.0615 161.641 61.97C161.477 61.8785 161.161 61.8082 160.693 61.7593V61.1115H164.798V61.7593C164.065 61.8667 163.457 62.2401 162.974 62.8795C162.492 63.519 161.579 65.0743 160.236 67.5455L164.562 77.1711C164.655 77.3751 164.746 77.511 164.833 77.5627C164.964 77.6299 165.106 77.674 165.252 77.6932V78.3403H160.496V77.6932C160.926 77.685 161.219 77.6517 161.376 77.5933C161.534 77.5348 161.612 77.3896 161.612 77.1575C161.606 77.0157 161.58 76.8755 161.535 76.7408C161.459 76.5051 161.369 76.2743 161.265 76.0495L158.689 70.2599L158.33 70.9084V75.9006C158.33 76.6389 158.467 77.141 158.741 77.407C158.898 77.5647 159.172 77.6601 159.562 77.6932V78.3403H154.779L154.781 77.6925Z" fill="black"/>
<path d="M165.71 77.6925C166.052 77.6508 166.327 77.3728 166.534 76.8584C166.669 76.5348 166.861 75.8211 167.109 74.7171L170.258 60.7627H170.653L173.816 74.1542C174.172 75.6565 174.437 76.6255 174.612 77.061C174.787 77.4965 175.035 77.7061 175.357 77.6898V78.3369H170.768V77.6898C171.229 77.6562 171.533 77.5855 171.678 77.4777C171.823 77.3698 171.896 77.0961 171.896 76.6565C171.884 76.351 171.847 76.0471 171.785 75.7476C171.74 75.507 171.678 75.2165 171.598 74.8762L171.237 73.3324H168.056C167.848 74.3453 167.714 75.0051 167.654 75.3119C167.53 75.9677 167.467 76.4449 167.467 76.7435C167.467 77.1083 167.603 77.3739 167.874 77.5402C168.035 77.6308 168.277 77.6807 168.6 77.6898V78.3369H165.707L165.71 77.6925ZM171.034 72.3277L169.67 66.4273H169.551L168.272 72.3277H171.034Z" fill="black"/>
<path d="M175.922 77.6925C176.402 77.6508 176.73 77.489 176.905 77.2072C177.08 76.9253 177.167 76.311 177.168 75.3643V64.0861C177.168 63.1036 177.064 62.464 176.857 62.1671C176.718 61.9686 176.406 61.8327 175.922 61.7593V61.1115H180.484C181.431 61.1115 182.198 61.29 182.785 61.6471C183.92 62.369 184.487 63.6679 184.488 65.5436C184.488 66.9299 184.19 68.0211 183.596 68.8174C183.141 69.4147 182.66 69.7965 182.153 69.9628L185.162 77.2221C185.24 77.4211 185.323 77.5518 185.411 77.6143C185.508 77.6797 185.62 77.7203 185.737 77.7326V78.3444H182.779L179.472 70.3775H179.466V75.369C179.466 76.2654 179.549 76.8693 179.715 77.1806C179.881 77.492 180.213 77.6642 180.712 77.6973V78.3444H175.922V77.6925ZM181.458 68.848C181.858 68.4043 182.057 67.3772 182.057 65.7665C182.057 64.7795 181.981 63.9996 181.829 63.4268C181.566 62.4556 181.086 61.97 180.389 61.97C180.011 61.97 179.763 62.055 179.644 62.2249C179.526 62.3949 179.467 62.6749 179.468 63.0651V69.5509C180.395 69.5264 181.058 69.2921 181.458 68.848Z" fill="black"/>
<path d="M185.812 61.1115H194.347L194.361 66.2526H193.955C193.819 64.414 193.436 63.1698 192.804 62.5199C192.449 62.1624 191.918 61.9668 191.212 61.9333V75.3636C191.212 76.3017 191.302 76.9246 191.483 77.2323C191.663 77.54 192.043 77.6936 192.622 77.6932V78.3403H187.569V77.6932C188.123 77.6932 188.491 77.5373 188.673 77.2255C188.855 76.9137 188.945 76.2931 188.944 75.3636V61.9326C188.251 61.9662 187.72 62.1617 187.352 62.5193C186.675 63.1854 186.291 64.4297 186.201 66.2519H185.795L185.812 61.1115Z" fill="black"/>
<path d="M194.106 77.6925C194.447 77.6508 194.722 77.3728 194.929 76.8584C195.065 76.5348 195.256 75.8211 195.504 74.7171L198.653 60.7627H199.048L202.211 74.1542C202.567 75.6565 202.832 76.6255 203.007 77.061C203.182 77.4965 203.431 77.7061 203.752 77.6898V78.3369H199.162V77.6898C199.624 77.6562 199.927 77.5855 200.073 77.4777C200.218 77.3698 200.29 77.0961 200.29 76.6565C200.278 76.3511 200.241 76.0471 200.18 75.7476C200.135 75.507 200.073 75.2165 199.993 74.8762L199.632 73.3324H196.451C196.243 74.3453 196.109 75.0051 196.049 75.3119C195.924 75.9677 195.862 76.4449 195.862 76.7435C195.862 77.1083 195.997 77.3739 196.268 77.5402C196.43 77.6308 196.672 77.6807 196.995 77.6898V78.3369H194.102L194.106 77.6925ZM199.428 72.327L198.064 66.4266H197.945L196.665 72.327H199.428Z" fill="black"/>
</g>
<defs>
<clipPath id="clip0_34_1236">
<rect width="215" height="79" fill="white"/>
</clipPath>
</defs>
</svg>
